<?xml version="1.0" encoding="UTF-8" standalone="no"?>
<svg
   xmlns:dc="http://purl.org/dc/elements/1.1/"
   xmlns:cc="http://creativecommons.org/ns#"
   xmlns:rdf="http://www.w3.org/1999/02/22-rdf-syntax-ns#"
   xmlns:svg="http://www.w3.org/2000/svg"
   xmlns="http://www.w3.org/2000/svg"
   version="1.1"
   id="svg2"
   xml:space="preserve"
   width="162.17599"
   height="237.4856"
   viewBox="0 0 162.176 237.48559"><metadata
     id="metadata8"><rdf:RDF><cc:Work
         rdf:about=""><dc:format>image/svg+xml</dc:format><dc:type
           rdf:resource="http://purl.org/dc/dcmitype/StillImage" /><dc:title></dc:title></cc:Work></rdf:RDF></metadata><defs
     id="defs6"><clipPath
       clipPathUnits="userSpaceOnUse"
       id="clipPath72"><path
         d="M 0,255.12 H 595.28 V 0 H 0 Z"
         id="path70" /></clipPath></defs><g
     id="g10"
     transform="matrix(1.3333333,0,0,-1.3333333,-315.39733,286.45333)"><path
       d="M 238.048,140.186 H 356.605 V 60.074 H 238.048 Z"
       style="fill:#003399;fill-opacity:1;fill-rule:nonzero;stroke:none"
       id="path12" /><g
       id="g14"
       transform="translate(294.8,122.7307)"><path
         d="M 0,0 2.502,1.85 5.004,0 4.052,2.992 6.592,4.843 H 3.46 L 2.502,7.871 1.544,4.839 -1.587,4.843 0.953,2.992 Z"
         style="fill:#ffcc00;fill-opacity:1;fill-rule:nonzero;stroke:none"
         id="path16" /></g><g
       id="g18"
       transform="translate(281.8546,119.205)"><path
         d="M 0,0 2.501,1.85 5.001,0 4.051,2.992 6.591,4.842 H 3.459 L 2.5,7.875 1.541,4.84 -1.589,4.842 0.95,2.992 Z"
         style="fill:#ffcc00;fill-opacity:1;fill-rule:nonzero;stroke:none"
         id="path20" /></g><g
       id="g22"
       transform="translate(274.8835,117.4577)"><path
         d="M 0,0 -0.958,-3.035 -4.09,-3.032 -1.551,-4.883 -2.502,-7.876 0,-6.025 2.502,-7.876 1.55,-4.883 4.089,-3.032 H 0.958 Z"
         style="fill:#ffcc00;fill-opacity:1;fill-rule:nonzero;stroke:none"
         id="path24" /></g><g
       id="g26"
       transform="translate(271.4073,98.3271)"><path
         d="M 0,0 2.502,-1.85 1.551,1.142 4.09,2.992 H 0.959 L 0,6.025 -0.957,2.986 -4.089,2.992 -1.549,1.142 -2.501,-1.85 Z"
         style="fill:#ffcc00;fill-opacity:1;fill-rule:nonzero;stroke:none"
         id="path28" /></g><g
       id="g30"
       transform="translate(275.8416,88.1748)"><path
         d="M 0,0 -0.958,3.032 -1.917,-0.004 -5.048,0 -2.509,-1.852 -3.46,-4.842 -0.958,-2.99 1.544,-4.842 0.592,-1.852 3.131,0 Z"
         style="fill:#ffcc00;fill-opacity:1;fill-rule:nonzero;stroke:none"
         id="path32" /></g><g
       id="g34"
       transform="translate(285.3326,78.5544)"><path
         d="M 0,0 -0.959,3.029 -1.915,-0.002 -5.047,0 l 2.539,-1.849 -0.951,-2.993 2.502,1.85 2.499,-1.85 -0.95,2.993 L 3.133,0 Z"
         style="fill:#ffcc00;fill-opacity:1;fill-rule:nonzero;stroke:none"
         id="path36" /></g><g
       id="g38"
       transform="translate(298.2625,75.0692)"><path
         d="M 0,0 -0.959,3.032 -1.915,-0.004 -5.048,0 l 2.539,-1.85 -0.95,-2.992 2.502,1.85 2.501,-1.85 L 0.59,-1.85 3.132,0 Z"
         style="fill:#ffcc00;fill-opacity:1;fill-rule:nonzero;stroke:none"
         id="path40" /></g><g
       id="g42"
       transform="translate(311.1923,78.5544)"><path
         d="m 0,0 -0.957,3.029 -0.96,-3.031 -3.13,0.002 2.538,-1.849 -0.95,-2.993 2.502,1.85 2.501,-1.85 L 0.59,-1.849 3.132,0 Z"
         style="fill:#ffcc00;fill-opacity:1;fill-rule:nonzero;stroke:none"
         id="path44" /></g><g
       id="g46"
       transform="translate(320.6858,88.1748)"><path
         d="M 0,0 -0.96,3.032 -1.92,-0.004 -5.049,0 -2.509,-1.852 -3.461,-4.842 -0.96,-2.99 1.541,-4.842 0.588,-1.852 3.128,0 Z"
         style="fill:#ffcc00;fill-opacity:1;fill-rule:nonzero;stroke:none"
         id="path48" /></g><g
       id="g50"
       transform="translate(327.2541,101.3554)"><path
         d="M 0,0 H -3.133 L -4.093,3.032 -5.049,-0.002 -8.181,0 l 2.54,-1.849 -0.951,-2.993 2.499,1.853 2.502,-1.853 -0.951,2.993 z"
         style="fill:#ffcc00;fill-opacity:1;fill-rule:nonzero;stroke:none"
         id="path52" /></g><g
       id="g54"
       transform="translate(317.2245,109.6222)"><path
         d="M 0,0 2.501,1.849 5.003,0 4.049,2.991 6.59,4.839 H 3.461 L 2.501,7.872 1.541,4.836 -1.588,4.839 0.953,2.991 Z"
         style="fill:#ffcc00;fill-opacity:1;fill-rule:nonzero;stroke:none"
         id="path56" /></g><g
       id="g58"
       transform="translate(310.2707,127.0769)"><path
         d="m 0,0 -0.956,-3.035 -3.132,0.005 2.537,-1.853 -0.95,-2.991 2.505,1.853 2.498,-1.853 -0.951,2.991 2.541,1.853 H 0.957 Z"
         style="fill:#ffcc00;fill-opacity:1;fill-rule:nonzero;stroke:none"
         id="path60" /></g><g
       id="g62"
       transform="translate(238.0553,41.3782)"><path
         d="m 0,0 v 11.354 h 8.209 v -1.34 H 1.503 V 6.537 h 6.28 V 5.204 H 1.503 V 1.34 h 6.97 V 0 Z"
         style="fill:#003399;fill-opacity:1;fill-rule:nonzero;stroke:none"
         id="path64" /></g><g
       id="g66"><g
         id="g68"
         clip-path="url(#clipPath72)"><g
           id="g74"
           transform="translate(254.292,41.3782)"><path
             d="m 0,0 v 1.208 c -0.64,-0.929 -1.51,-1.393 -2.61,-1.393 -0.486,0 -0.939,0.092 -1.359,0.278 -0.421,0.186 -0.733,0.42 -0.937,0.701 -0.204,0.281 -0.348,0.626 -0.43,1.034 -0.057,0.273 -0.085,0.707 -0.085,1.301 v 5.096 h 1.394 V 3.664 c 0,-0.729 0.028,-1.22 0.085,-1.472 0.088,-0.367 0.274,-0.655 0.558,-0.863 0.284,-0.21 0.634,-0.314 1.053,-0.314 0.418,0 0.81,0.107 1.177,0.321 0.366,0.214 0.626,0.505 0.778,0.875 0.153,0.369 0.229,0.905 0.229,1.607 V 8.225 H 1.247 V 0 Z"
             style="fill:#003399;fill-opacity:1;fill-rule:nonzero;stroke:none"
             id="path76" /></g><g
           id="g78"
           transform="translate(258.1831,41.3782)"><path
             d="M 0,0 V 8.225 H 1.255 V 6.978 C 1.575,7.562 1.87,7.946 2.141,8.132 2.413,8.318 2.71,8.41 3.036,8.41 3.505,8.41 3.983,8.261 4.469,7.962 L 3.989,6.669 C 3.647,6.87 3.307,6.971 2.966,6.971 2.662,6.971 2.388,6.878 2.145,6.695 1.902,6.512 1.73,6.257 1.626,5.932 1.471,5.436 1.394,4.895 1.394,4.306 V 0 Z"
             style="fill:#003399;fill-opacity:1;fill-rule:nonzero;stroke:none"
             id="path80" /></g><g
           id="g82"
           transform="translate(264.8701,45.4907)"><path
             d="m 0,0 c 0,-1.053 0.23,-1.843 0.69,-2.366 0.459,-0.524 1.037,-0.786 1.734,-0.786 0.692,0 1.268,0.263 1.727,0.789 0.46,0.528 0.69,1.33 0.69,2.41 0,1.017 -0.231,1.787 -0.694,2.311 C 3.685,2.883 3.111,3.145 2.424,3.145 1.727,3.145 1.149,2.884 0.69,2.363 0.23,1.84 0,1.053 0,0 m -1.433,0 c 0,1.522 0.424,2.651 1.271,3.384 0.707,0.609 1.569,0.914 2.586,0.914 1.131,0 2.055,-0.37 2.773,-1.111 C 5.914,2.446 6.274,1.423 6.274,0.117 6.274,-0.942 6.115,-1.775 5.797,-2.382 5.48,-2.988 5.018,-3.459 4.411,-3.795 3.804,-4.131 3.142,-4.298 2.424,-4.298 c -1.151,0 -2.082,0.368 -2.792,1.107 -0.71,0.738 -1.065,1.802 -1.065,3.191"
             style="fill:#003399;fill-opacity:1;fill-rule:nonzero;stroke:none"
             id="path84" /></g><g
           id="g86"
           transform="translate(274.516,45.4438)"><path
             d="m 0,0 c 0,-1.058 0.214,-1.84 0.643,-2.346 0.429,-0.506 0.947,-0.759 1.556,-0.759 0.62,0 1.151,0.262 1.592,0.786 0.442,0.523 0.663,1.336 0.663,2.436 0,1.048 -0.216,1.833 -0.647,2.354 C 3.375,2.992 2.861,3.253 2.261,3.253 1.668,3.253 1.143,2.975 0.685,2.42 0.229,1.866 0,1.059 0,0 M -1.263,-7.218 V 4.16 H 0.008 V 3.091 C 0.307,3.508 0.646,3.823 1.022,4.032 1.399,4.241 1.856,4.345 2.393,4.345 3.096,4.345 3.715,4.164 4.252,3.803 4.789,3.442 5.195,2.932 5.468,2.274 5.742,1.615 5.879,0.894 5.879,0.108 5.879,-0.733 5.728,-1.49 5.426,-2.164 5.124,-2.838 4.684,-3.354 4.109,-3.713 3.533,-4.072 2.928,-4.251 2.293,-4.251 c -0.465,0 -0.882,0.098 -1.251,0.294 -0.369,0.196 -0.673,0.444 -0.91,0.743 v -4.004 z"
             style="fill:#003399;fill-opacity:1;fill-rule:nonzero;stroke:none"
             id="path88" /></g><g
           id="g90"
           transform="translate(283.6047,46.2803)"><path
             d="M 0,0 H 4.593 C 4.531,0.692 4.355,1.211 4.066,1.557 3.622,2.094 3.046,2.363 2.339,2.363 1.699,2.363 1.16,2.148 0.724,1.72 0.288,1.291 0.046,0.719 0,0 M 4.577,-2.253 6.018,-2.431 C 5.79,-3.274 5.37,-3.926 4.755,-4.391 4.141,-4.855 3.356,-5.087 2.4,-5.087 c -1.202,0 -2.156,0.369 -2.861,1.11 -0.705,0.742 -1.057,1.78 -1.057,3.118 0,1.384 0.356,2.457 1.068,3.222 0.713,0.764 1.637,1.145 2.773,1.145 1.1,0 1.998,-0.374 2.696,-1.123 0.697,-0.748 1.045,-1.801 1.045,-3.159 0,-0.083 -0.002,-0.207 -0.008,-0.372 h -6.134 c 0.052,-0.904 0.307,-1.596 0.767,-2.076 0.46,-0.48 1.033,-0.72 1.719,-0.72 0.512,0 0.948,0.134 1.309,0.404 0.362,0.268 0.648,0.696 0.86,1.285"
             style="fill:#003399;fill-opacity:1;fill-rule:nonzero;stroke:none"
             id="path92" /></g><g
           id="g94"
           transform="translate(297.099,45.5064)"><path
             d="m 0,0 c -0.506,-0.207 -1.265,-0.383 -2.277,-0.527 -0.573,-0.082 -0.979,-0.176 -1.216,-0.278 -0.237,-0.104 -0.42,-0.255 -0.55,-0.454 -0.129,-0.199 -0.194,-0.419 -0.194,-0.662 0,-0.372 0.141,-0.681 0.423,-0.929 0.281,-0.248 0.693,-0.372 1.235,-0.372 0.537,0 1.015,0.117 1.433,0.353 0.418,0.234 0.725,0.556 0.922,0.964 C -0.075,-1.591 0,-1.125 0,-0.512 Z m 0.116,-3.114 c -0.516,-0.439 -1.013,-0.748 -1.49,-0.929 -0.478,-0.18 -0.99,-0.271 -1.538,-0.271 -0.903,0 -1.598,0.221 -2.083,0.662 -0.485,0.442 -0.729,1.005 -0.729,1.693 0,0.402 0.093,0.77 0.275,1.103 0.184,0.332 0.424,0.601 0.721,0.802 0.296,0.201 0.631,0.354 1.003,0.456 0.274,0.073 0.687,0.142 1.239,0.209 1.125,0.135 1.955,0.295 2.486,0.481 0.005,0.191 0.008,0.313 0.008,0.364 0,0.568 -0.132,0.968 -0.395,1.2 -0.356,0.316 -0.886,0.473 -1.588,0.473 -0.655,0 -1.14,-0.115 -1.452,-0.345 C -3.739,2.554 -3.971,2.147 -4.12,1.565 L -5.483,1.75 c 0.124,0.584 0.328,1.054 0.612,1.414 0.284,0.359 0.694,0.634 1.231,0.828 0.537,0.194 1.159,0.29 1.867,0.29 0.702,0 1.272,-0.082 1.711,-0.248 C 0.377,3.869 0.7,3.662 0.906,3.411 1.113,3.161 1.257,2.845 1.34,2.462 1.387,2.225 1.41,1.797 1.41,1.177 v -1.858 c 0,-1.296 0.029,-2.116 0.089,-2.46 0.059,-0.343 0.176,-0.672 0.352,-0.987 H 0.395 C 0.25,-3.839 0.158,-3.501 0.116,-3.114"
             style="fill:#003399;fill-opacity:1;fill-rule:nonzero;stroke:none"
             id="path96" /></g><g
           id="g98"
           transform="translate(301.1454,41.3782)"><path
             d="M 0,0 V 8.225 H 1.255 V 7.055 C 1.859,7.959 2.732,8.41 3.872,8.41 4.368,8.41 4.824,8.321 5.24,8.143 5.656,7.965 5.967,7.732 6.173,7.443 6.379,7.154 6.524,6.81 6.607,6.413 6.658,6.155 6.684,5.702 6.684,5.057 V 0 H 5.29 V 5.003 C 5.29,5.571 5.236,5.996 5.127,6.278 5.019,6.558 4.826,6.783 4.551,6.951 4.274,7.119 3.95,7.203 3.578,7.203 2.985,7.203 2.472,7.014 2.041,6.638 1.61,6.261 1.394,5.545 1.394,4.492 V 0 Z"
             style="fill:#003399;fill-opacity:1;fill-rule:nonzero;stroke:none"
             id="path100" /></g><g
           id="g102"
           transform="translate(322.9545,52.7326)"><path
             d="m 0,0 h 1.503 v -6.561 c 0,-1.141 -0.129,-2.047 -0.387,-2.717 -0.258,-0.672 -0.725,-1.218 -1.398,-1.638 -0.674,-0.422 -1.558,-0.632 -2.653,-0.632 -1.064,0 -1.934,0.183 -2.61,0.55 -0.677,0.367 -1.159,0.897 -1.448,1.591 -0.29,0.694 -0.434,1.644 -0.434,2.846 V 0 h 1.502 v -6.552 c 0,-0.987 0.092,-1.714 0.275,-2.181 0.183,-0.467 0.499,-0.827 0.945,-1.08 0.447,-0.254 0.993,-0.38 1.638,-0.38 1.105,0 1.892,0.25 2.362,0.751 C -0.235,-8.94 0,-7.977 0,-6.552 Z"
             style="fill:#003399;fill-opacity:1;fill-rule:nonzero;stroke:none"
             id="path104" /></g><g
           id="g106"
           transform="translate(327.256,41.3782)"><path
             d="M 0,0 V 8.225 H 1.255 V 7.055 C 1.859,7.959 2.731,8.41 3.872,8.41 4.368,8.41 4.824,8.321 5.24,8.143 5.656,7.965 5.967,7.732 6.173,7.443 6.379,7.154 6.524,6.81 6.607,6.413 6.658,6.155 6.684,5.702 6.684,5.057 V 0 H 5.29 V 5.003 C 5.29,5.571 5.236,5.996 5.127,6.278 5.019,6.558 4.826,6.783 4.551,6.951 4.274,7.119 3.95,7.203 3.578,7.203 2.985,7.203 2.472,7.014 2.041,6.638 1.61,6.261 1.394,5.545 1.394,4.492 V 0 Z"
             style="fill:#003399;fill-opacity:1;fill-rule:nonzero;stroke:none"
             id="path108" /></g><path
           d="m 336.561,49.603 h 1.394 v -8.225 h -1.394 z m 0,3.13 h 1.394 V 51.13 h -1.394 z"
           style="fill:#003399;fill-opacity:1;fill-rule:nonzero;stroke:none"
           id="path110" /><g
           id="g112"
           transform="translate(341.4677,45.4907)"><path
             d="m 0,0 c 0,-1.053 0.23,-1.843 0.69,-2.366 0.459,-0.524 1.037,-0.786 1.734,-0.786 0.692,0 1.268,0.263 1.727,0.789 0.46,0.528 0.69,1.33 0.69,2.41 0,1.017 -0.231,1.787 -0.694,2.311 C 3.685,2.883 3.111,3.145 2.424,3.145 1.727,3.145 1.149,2.884 0.69,2.363 0.23,1.84 0,1.053 0,0 m -1.433,0 c 0,1.522 0.424,2.651 1.27,3.384 0.708,0.609 1.57,0.914 2.587,0.914 1.131,0 2.055,-0.37 2.773,-1.111 C 5.914,2.446 6.274,1.423 6.274,0.117 6.274,-0.942 6.115,-1.775 5.797,-2.382 5.48,-2.988 5.018,-3.459 4.411,-3.795 3.804,-4.131 3.142,-4.298 2.424,-4.298 c -1.151,0 -2.082,0.368 -2.792,1.107 -0.71,0.738 -1.065,1.802 -1.065,3.191"
             style="fill:#003399;fill-opacity:1;fill-rule:nonzero;stroke:none"
             id="path114" /></g><g
           id="g116"
           transform="translate(349.8511,41.3782)"><path
             d="M 0,0 V 8.225 H 1.255 V 7.055 C 1.859,7.959 2.731,8.41 3.872,8.41 4.368,8.41 4.824,8.321 5.24,8.143 5.656,7.965 5.967,7.732 6.173,7.443 6.379,7.154 6.524,6.81 6.607,6.413 6.658,6.155 6.684,5.702 6.684,5.057 V 0 H 5.29 V 5.003 C 5.29,5.571 5.236,5.996 5.127,6.278 5.019,6.558 4.826,6.783 4.551,6.951 4.274,7.119 3.95,7.203 3.578,7.203 2.985,7.203 2.472,7.014 2.041,6.638 1.61,6.261 1.394,5.545 1.394,4.492 V 0 Z"
             style="fill:#003399;fill-opacity:1;fill-rule:nonzero;stroke:none"
             id="path118" /></g><path
           d="m 342.36,162.138 h 14.32 v 36.095 h -14.32 z"
           style="fill:#69be28;fill-opacity:1;fill-rule:nonzero;stroke:none"
           id="path120" /><path
           d="m 316.194,162.138 h 23.866 v 36.086 h -23.866 z"
           style="fill:#003399;fill-opacity:1;fill-rule:nonzero;stroke:none"
           id="path122" /><g
           id="g124"
           transform="translate(342.9614,193.5971)"><path
             d="M 0,0 -1.105,3.393 -2.212,0 -5.783,-0.007 -2.896,-2.103 -4.01,-5.51 l 2.904,2.107 2.9,-2.107 -1.109,3.407 2.889,2.096 z"
             style="fill:#ffcc00;fill-opacity:1;fill-rule:nonzero;stroke:none"
             id="path126" /></g><g
           id="g128"
           transform="translate(348.9536,184.3312)"><path
             d="M 0,0 -1.104,3.392 -2.21,0 l -3.571,-0.009 2.886,-2.095 -1.113,-3.408 2.903,2.107 2.9,-2.107 -1.109,3.406 2.89,2.097 z"
             style="fill:#ffcc00;fill-opacity:1;fill-rule:nonzero;stroke:none"
             id="path130" /></g><g
           id="g132"
           transform="translate(346.3591,173.6613)"><path
             d="M 0,0 -1.104,3.394 -2.21,0 l -3.573,-0.005 2.885,-2.097 -1.11,-3.409 2.9,2.108 2.902,-2.108 -1.109,3.408 2.889,2.098 z"
             style="fill:#ffcc00;fill-opacity:1;fill-rule:nonzero;stroke:none"
             id="path134" /></g><g
           id="g136"
           transform="translate(334.6497,168.8914)"><path
             d="M 0,0 -1.105,3.392 -2.214,0 l -3.569,-0.007 2.885,-2.095 -1.112,-3.41 2.903,2.108 2.899,-2.108 -1.109,3.408 2.891,2.097 z"
             style="fill:#ffcc00;fill-opacity:1;fill-rule:nonzero;stroke:none"
             id="path138" /></g><g
           id="g140"
           transform="translate(324.5367,173.1742)"><path
             d="M 0,0 -1.103,3.392 -2.212,0 l -3.571,-0.008 2.887,-2.096 -1.112,-3.407 2.902,2.106 2.9,-2.106 -1.109,3.406 2.889,2.097 z"
             style="fill:#ffcc00;fill-opacity:1;fill-rule:nonzero;stroke:none"
             id="path142" /></g><g
           id="g144"
           transform="translate(308.9016,191.1848)"><path
             d="M 0,0 H -11.121 V 4.043 H 2.803 V 6.848 H -13.925 V -9.879 H 2.803 v 2.805 h -13.924 v 4.295 H 0 V 0 m -16.72,1.416 v 1.238 c 0,2.325 -1.872,4.194 -4.197,4.194 H -33.45 V -9.879 h 2.806 v 7.1 h 9.727 c 0.785,0 1.39,-0.606 1.39,-1.414 v -5.686 h 2.807 v 5.686 c 0,1.086 -0.406,2.046 -1.037,2.804 0.631,0.758 1.037,1.718 1.037,2.805 m -13.924,2.627 h 9.727 c 0.785,0 1.39,-0.606 1.39,-1.389 V 1.416 C -19.527,0.607 -20.132,0 -20.917,0 h -9.727 z M -49.209,-9.879 v 7.1 h 11.117 V 0 h -11.117 v 4.043 h 13.921 V 6.848 H -52.015 V -9.879 Z M -56.914,0 h -11.118 v 4.043 h 13.923 V 6.848 H -70.837 V -9.879 h 16.728 v 2.805 h -13.923 v 4.295 h 11.118 z"
             style="fill:#003399;fill-opacity:1;fill-rule:nonzero;stroke:none"
             id="path146" /></g><g
           id="g148"
           transform="translate(238.1007,204.1239)"><path
             d="M 0,0 V 9.139 H 5.545 V 8.523 H 0.693 V 4.916 H 4.826 V 4.3 H 0.693 V 0.616 H 5.545 V 0 Z"
             style="fill:#003399;fill-opacity:1;fill-rule:nonzero;stroke:none"
             id="path150" /></g><g
           id="g152"
           transform="translate(249.6919,204.1239)"><path
             d="m 0,0 v 0.732 c -0.462,-0.54 -1.078,-0.809 -1.823,-0.809 -0.693,0 -1.245,0.205 -1.643,0.591 -0.41,0.397 -0.641,0.988 -0.641,1.719 v 3.954 h 0.654 V 2.349 c 0,-1.194 0.603,-1.848 1.707,-1.848 C -0.642,0.501 0,1.181 0,2.349 V 6.187 H 0.655 V 0 Z"
             style="fill:#003399;fill-opacity:1;fill-rule:nonzero;stroke:none"
             id="path154" /></g><g
           id="g156"
           transform="translate(256.3669,209.3225)"><path
             d="m 0,0 c -0.372,0.372 -0.655,0.488 -1.168,0.488 -1.065,0 -1.656,-0.873 -1.656,-1.874 v -3.813 h -0.654 v 6.187 h 0.654 V 0.167 c 0.36,0.577 1.078,0.898 1.81,0.898 0.59,0 1.053,-0.154 1.489,-0.59 z"
             style="fill:#003399;fill-opacity:1;fill-rule:nonzero;stroke:none"
             id="path158" /></g><g
           id="g160"
           transform="translate(261.152,209.2839)"><path
             d="m 0,0 c -0.334,0.334 -0.783,0.526 -1.284,0.526 -0.5,0 -0.949,-0.192 -1.283,-0.526 -0.513,-0.514 -0.552,-1.348 -0.552,-2.066 0,-0.72 0.039,-1.554 0.552,-2.067 0.334,-0.334 0.783,-0.526 1.283,-0.526 0.501,0 0.95,0.192 1.284,0.526 0.514,0.513 0.552,1.347 0.552,2.067 C 0.552,-1.348 0.514,-0.514 0,0 M 0.437,-4.557 C 0,-4.993 -0.59,-5.237 -1.284,-5.237 c -0.693,0 -1.283,0.244 -1.719,0.68 -0.655,0.655 -0.771,1.605 -0.771,2.491 0,0.885 0.116,1.835 0.771,2.49 0.436,0.436 1.026,0.68 1.719,0.68 0.694,0 1.284,-0.244 1.721,-0.68 0.654,-0.655 0.769,-1.605 0.769,-2.49 0,-0.886 -0.115,-1.836 -0.769,-2.491"
             style="fill:#003399;fill-opacity:1;fill-rule:nonzero;stroke:none"
             id="path162" /></g><g
           id="g164"
           transform="translate(266.9417,209.8102)"><path
             d="m 0,0 c -1.515,0 -1.746,-1.309 -1.746,-2.593 0,-1.283 0.231,-2.593 1.746,-2.593 1.515,0 1.746,1.31 1.746,2.593 C 1.746,-1.309 1.515,0 0,0 M 1.604,-5.224 C 1.284,-5.545 0.732,-5.763 0.09,-5.763 c -0.694,0 -1.296,0.154 -1.836,0.873 V -8.638 H -2.4 V 0.5 h 0.654 v -0.795 c 0.54,0.719 1.142,0.873 1.836,0.873 0.642,0 1.194,-0.219 1.514,-0.539 C 2.233,-0.59 2.4,-1.617 2.4,-2.593 2.4,-3.568 2.233,-4.595 1.604,-5.224"
             style="fill:#003399;fill-opacity:1;fill-rule:nonzero;stroke:none"
             id="path166" /></g><g
           id="g168"
           transform="translate(275.247,208.7704)"><path
             d="M 0,0 C -0.27,0.642 -0.899,1.04 -1.604,1.04 -2.311,1.04 -2.94,0.642 -3.209,0 -3.363,-0.385 -3.402,-0.578 -3.427,-1.168 H 0.218 C 0.192,-0.578 0.154,-0.385 0,0 m -3.427,-1.694 c 0,-1.566 0.706,-2.439 2.015,-2.439 0.732,0 1.181,0.218 1.707,0.744 l 0.488,-0.385 c -0.629,-0.629 -1.207,-0.949 -2.234,-0.949 -1.707,0 -2.631,1.104 -2.631,3.17 0,1.99 0.924,3.17 2.478,3.17 1.54,0 2.477,-1.129 2.477,-3.016 v -0.295 z"
             style="fill:#003399;fill-opacity:1;fill-rule:nonzero;stroke:none"
             id="path170" /></g><g
           id="g172"
           transform="translate(282.4611,209.8229)"><path
             d="M 0,0 V -5.699 H -0.655 V 0 h -0.847 v 0.488 h 0.847 v 1.335 c 0,0.937 0.514,1.617 1.49,1.617 H 1.399 V 2.862 H 0.95 C 0.295,2.862 0,2.477 0,1.835 V 0.488 H 1.399 V 0 Z"
             style="fill:#003399;fill-opacity:1;fill-rule:nonzero;stroke:none"
             id="path174" /></g><g
           id="g176"
           transform="translate(289.5979,204.1239)"><path
             d="m 0,0 v 0.732 c -0.462,-0.54 -1.078,-0.809 -1.822,-0.809 -0.694,0 -1.245,0.205 -1.643,0.591 -0.411,0.397 -0.642,0.988 -0.642,1.719 v 3.954 h 0.655 V 2.349 c 0,-1.194 0.603,-1.848 1.707,-1.848 C -0.642,0.501 0,1.181 0,2.349 V 6.187 H 0.655 V 0 Z"
             style="fill:#003399;fill-opacity:1;fill-rule:nonzero;stroke:none"
             id="path178" /></g><g
           id="g180"
           transform="translate(296.9016,204.1239)"><path
             d="m 0,0 v 3.838 c 0,1.194 -0.603,1.848 -1.707,1.848 -1.104,0 -1.746,-0.68 -1.746,-1.848 V 0 h -0.654 v 6.187 h 0.654 V 5.455 c 0.462,0.539 1.078,0.809 1.823,0.809 0.693,0 1.245,-0.206 1.643,-0.59 C 0.424,5.276 0.655,4.685 0.655,3.953 V 0 Z"
             style="fill:#003399;fill-opacity:1;fill-rule:nonzero;stroke:none"
             id="path182" /></g><g
           id="g184"
           transform="translate(302.0617,209.8102)"><path
             d="m 0,0 c -1.515,0 -1.746,-1.309 -1.746,-2.593 0,-1.283 0.231,-2.593 1.746,-2.593 1.515,0 1.746,1.31 1.746,2.593 C 1.746,-1.309 1.515,0 0,0 m 1.746,-5.686 v 0.796 c -0.54,-0.719 -1.142,-0.873 -1.836,-0.873 -0.642,0 -1.194,0.218 -1.514,0.539 -0.629,0.629 -0.796,1.656 -0.796,2.631 0,0.976 0.167,2.003 0.796,2.632 0.32,0.32 0.872,0.539 1.514,0.539 0.694,0 1.296,-0.154 1.836,-0.873 V 3.453 H 2.4 v -9.139 z"
             style="fill:#003399;fill-opacity:1;fill-rule:nonzero;stroke:none"
             id="path186" /></g><g
           id="g188"
           transform="translate(308.9039,204.047)"><path
             d="m 0,0 c -1.078,0 -1.874,0.282 -2.503,0.886 l 0.45,0.449 c 0.487,-0.514 1.142,-0.757 2.027,-0.757 1.207,0 1.861,0.423 1.861,1.257 0,0.642 -0.371,0.963 -1.18,1.04 l -1.027,0.09 c -1.245,0.103 -1.861,0.654 -1.861,1.617 0,1.066 0.873,1.759 2.221,1.759 0.847,0 1.629,-0.244 2.169,-0.655 L 1.72,5.25 c -0.475,0.346 -1.052,0.526 -1.732,0.526 -1.014,0 -1.579,-0.436 -1.579,-1.194 0,-0.641 0.385,-0.963 1.257,-1.039 L 0.668,3.453 C 1.695,3.363 2.478,3.042 2.478,1.835 2.478,0.706 1.515,0 0,0"
             style="fill:#003399;fill-opacity:1;fill-rule:nonzero;stroke:none"
             id="path190" /></g><g
           id="g192"
           transform="translate(319.1742,204.047)"><path
             d="m 0,0 c -1.361,0 -2.208,0.372 -3.042,1.206 l 0.487,0.488 c 0.822,-0.821 1.489,-1.078 2.593,-1.078 1.438,0 2.349,0.693 2.349,1.887 0,0.539 -0.167,0.988 -0.5,1.283 C 1.553,4.069 1.309,4.159 0.564,4.274 l -1.065,0.167 c -0.693,0.103 -1.245,0.334 -1.63,0.668 -0.488,0.41 -0.719,0.975 -0.719,1.681 0,1.527 1.091,2.503 2.837,2.503 1.13,0 1.848,-0.308 2.631,-0.988 L 2.169,7.856 c -0.565,0.5 -1.13,0.847 -2.221,0.847 -1.322,0 -2.117,-0.732 -2.117,-1.887 0,-0.527 0.154,-0.924 0.474,-1.194 0.321,-0.27 0.847,-0.488 1.361,-0.565 L 0.655,4.903 C 1.514,4.775 1.9,4.621 2.284,4.3 2.785,3.889 3.08,3.26 3.08,2.529 3.08,0.988 1.9,0 0,0"
             style="fill:#003399;fill-opacity:1;fill-rule:nonzero;stroke:none"
             id="path194" /></g><g
           id="g196"
           transform="translate(327.9409,207.076)"><path
             d="m 0,0 h -1.926 c -1.065,0 -1.579,-0.424 -1.579,-1.245 0,-0.821 0.501,-1.206 1.618,-1.206 0.565,0 1.103,0.051 1.54,0.474 C -0.116,-1.759 0,-1.373 0,-0.796 Z m 0,-2.952 v 0.616 c -0.526,-0.526 -1.015,-0.693 -1.887,-0.693 -0.911,0 -1.425,0.154 -1.823,0.565 -0.282,0.295 -0.449,0.744 -0.449,1.206 0,1.13 0.809,1.784 2.156,1.784 H 0 v 0.693 c 0,0.989 -0.488,1.515 -1.746,1.515 -0.873,0 -1.322,-0.218 -1.707,-0.783 l -0.475,0.411 c 0.526,0.732 1.181,0.95 2.182,0.95 1.63,0 2.401,-0.732 2.401,-2.028 v -4.236 z"
             style="fill:#003399;fill-opacity:1;fill-rule:nonzero;stroke:none"
             id="path198" /></g><g
           id="g200"
           transform="translate(334.4362,204.1239)"><path
             d="M 0,0 -1.63,2.606 -3.286,0 h -0.796 l 2.093,3.158 -2.003,3.029 h 0.796 l 1.566,-2.49 1.54,2.49 H 0.706 L -1.296,3.158 0.796,0 Z"
             style="fill:#003399;fill-opacity:1;fill-rule:nonzero;stroke:none"
             id="path202" /></g><g
           id="g204"
           transform="translate(340.1998,209.2839)"><path
             d="m 0,0 c -0.334,0.334 -0.783,0.526 -1.284,0.526 -0.5,0 -0.949,-0.192 -1.283,-0.526 -0.513,-0.514 -0.552,-1.348 -0.552,-2.066 0,-0.72 0.039,-1.554 0.552,-2.067 0.334,-0.334 0.783,-0.526 1.283,-0.526 0.501,0 0.95,0.192 1.284,0.526 0.514,0.513 0.552,1.347 0.552,2.067 C 0.552,-1.348 0.514,-0.514 0,0 M 0.437,-4.557 C 0,-4.993 -0.59,-5.237 -1.284,-5.237 c -0.693,0 -1.283,0.244 -1.719,0.68 -0.655,0.655 -0.771,1.605 -0.771,2.491 0,0.885 0.116,1.835 0.771,2.49 0.436,0.436 1.026,0.68 1.719,0.68 0.694,0 1.284,-0.244 1.721,-0.68 0.654,-0.655 0.769,-1.605 0.769,-2.49 0,-0.886 -0.115,-1.836 -0.769,-2.491"
             style="fill:#003399;fill-opacity:1;fill-rule:nonzero;stroke:none"
             id="path206" /></g><g
           id="g208"
           transform="translate(347.6966,204.1239)"><path
             d="m 0,0 v 3.838 c 0,1.194 -0.604,1.848 -1.707,1.848 -1.104,0 -1.746,-0.68 -1.746,-1.848 V 0 h -0.654 v 6.187 h 0.654 V 5.455 c 0.462,0.539 1.078,0.809 1.823,0.809 0.693,0 1.245,-0.206 1.643,-0.59 C 0.424,5.276 0.655,4.685 0.655,3.953 V 0 Z"
             style="fill:#003399;fill-opacity:1;fill-rule:nonzero;stroke:none"
             id="path210" /></g><g
           id="g212"
           transform="translate(352.0352,202.4423)"><path
             d="M 0,0 C -0.115,-0.334 -0.244,-0.565 -0.424,-0.719 -0.732,-1.014 -1.181,-1.117 -1.592,-1.117 H -1.9 v 0.578 h 0.244 c 0.706,0 0.899,0.231 1.13,0.847 l 0.5,1.374 -2.258,6.186 h 0.718 L 0.295,2.452 2.156,7.868 h 0.719 z"
             style="fill:#003399;fill-opacity:1;fill-rule:nonzero;stroke:none"
             id="path214" /></g><path
           d="m 355.462,205.074 h 0.95 v -0.95 h -0.95 z"
           style="fill:#003399;fill-opacity:1;fill-rule:nonzero;stroke:none"
           id="path216" /><g
           id="g218"
           transform="translate(238.0851,170.8129)"><path
             d="M 0,0 V 5.273 H 3.199 V 4.917 H 0.4 V 2.836 H 2.785 V 2.481 H 0.4 V 0.356 H 3.199 V 0 Z"
             style="fill:#003399;fill-opacity:1;fill-rule:nonzero;stroke:none"
             id="path220" /></g><g
           id="g222"
           transform="translate(244.8184,170.8129)"><path
             d="m 0,0 v 0.422 c -0.267,-0.311 -0.622,-0.466 -1.052,-0.466 -0.399,0 -0.718,0.118 -0.948,0.34 -0.237,0.23 -0.37,0.57 -0.37,0.993 v 2.28 h 0.378 V 1.355 c 0,-0.689 0.348,-1.066 0.985,-1.066 C -0.37,0.289 0,0.681 0,1.355 V 3.569 H 0.378 V 0 Z"
             style="fill:#003399;fill-opacity:1;fill-rule:nonzero;stroke:none"
             id="path224" /></g><g
           id="g226"
           transform="translate(248.7153,173.8124)"><path
             d="m 0,0 c -0.215,0.215 -0.378,0.282 -0.674,0.282 -0.615,0 -0.955,-0.504 -0.955,-1.082 V -2.999 H -2.007 V 0.57 h 0.378 V 0.096 c 0.207,0.333 0.622,0.519 1.044,0.519 0.341,0 0.607,-0.089 0.859,-0.341 z"
             style="fill:#003399;fill-opacity:1;fill-rule:nonzero;stroke:none"
             id="path228" /></g><g
           id="g230"
           transform="translate(251.5221,173.7899)"><path
             d="M 0,0 C -0.193,0.192 -0.452,0.304 -0.741,0.304 -1.03,0.304 -1.289,0.192 -1.481,0 -1.778,-0.296 -1.8,-0.777 -1.8,-1.192 c 0,-0.415 0.022,-0.896 0.319,-1.193 0.192,-0.192 0.451,-0.303 0.74,-0.303 0.289,0 0.548,0.111 0.741,0.303 0.296,0.297 0.318,0.778 0.318,1.193 C 0.318,-0.777 0.296,-0.296 0,0 M 0.252,-2.629 C 0,-2.881 -0.341,-3.021 -0.741,-3.021 c -0.4,0 -0.74,0.14 -0.992,0.392 -0.378,0.378 -0.444,0.926 -0.444,1.437 0,0.511 0.066,1.059 0.444,1.436 0.252,0.252 0.592,0.393 0.992,0.393 0.4,0 0.741,-0.141 0.993,-0.393 0.377,-0.377 0.444,-0.925 0.444,-1.436 0,-0.511 -0.067,-1.059 -0.444,-1.437"
             style="fill:#003399;fill-opacity:1;fill-rule:nonzero;stroke:none"
             id="path232" /></g><g
           id="g234"
           transform="translate(254.9071,174.0939)"><path
             d="m 0,0 c -0.873,0 -1.006,-0.755 -1.006,-1.496 0,-0.741 0.133,-1.496 1.006,-1.496 0.874,0 1.008,0.755 1.008,1.496 C 1.008,-0.755 0.874,0 0,0 M 0.926,-3.014 C 0.741,-3.199 0.422,-3.325 0.052,-3.325 c -0.4,0 -0.747,0.088 -1.058,0.503 v -2.162 h -0.378 v 5.272 h 0.378 v -0.459 c 0.311,0.415 0.658,0.504 1.058,0.504 0.37,0 0.689,-0.126 0.874,-0.311 0.363,-0.363 0.459,-0.956 0.459,-1.518 0,-0.563 -0.096,-1.155 -0.459,-1.518"
             style="fill:#003399;fill-opacity:1;fill-rule:nonzero;stroke:none"
             id="path236" /></g><g
           id="g238"
           transform="translate(259.7451,173.4935)"><path
             d="M 0,0 C -0.156,0.371 -0.519,0.6 -0.926,0.6 -1.333,0.6 -1.696,0.371 -1.852,0 -1.941,-0.222 -1.962,-0.333 -1.977,-0.674 H 0.126 C 0.111,-0.333 0.088,-0.222 0,0 m -1.977,-0.977 c 0,-0.904 0.407,-1.407 1.162,-1.407 0.422,0 0.682,0.126 0.985,0.429 l 0.282,-0.222 c -0.364,-0.363 -0.697,-0.548 -1.289,-0.548 -0.985,0 -1.518,0.637 -1.518,1.829 0,1.148 0.533,1.83 1.429,1.83 0.889,0 1.429,-0.652 1.429,-1.741 v -0.17 z"
             style="fill:#003399;fill-opacity:1;fill-rule:nonzero;stroke:none"
             id="path240" /></g><g
           id="g242"
           transform="translate(263.6414,172.5163)"><path
             d="m 0,0 h -1.11 c -0.615,0 -0.912,-0.245 -0.912,-0.719 0,-0.474 0.289,-0.695 0.934,-0.695 0.326,0 0.636,0.029 0.888,0.274 0.133,0.125 0.2,0.348 0.2,0.681 z m 0,-1.703 v 0.355 c -0.303,-0.304 -0.585,-0.4 -1.088,-0.4 -0.526,0 -0.822,0.089 -1.052,0.326 -0.163,0.17 -0.259,0.429 -0.259,0.696 0,0.652 0.466,1.029 1.244,1.029 H 0 v 0.4 c 0,0.571 -0.281,0.875 -1.007,0.875 -0.503,0 -0.762,-0.127 -0.985,-0.453 l -0.274,0.238 c 0.304,0.421 0.682,0.548 1.259,0.548 0.94,0 1.385,-0.422 1.385,-1.17 v -2.444 z"
             style="fill:#003399;fill-opacity:1;fill-rule:nonzero;stroke:none"
             id="path244" /></g><g
           id="g246"
           transform="translate(267.8716,170.8129)"><path
             d="m 0,0 v 2.214 c 0,0.689 -0.348,1.067 -0.985,1.067 -0.637,0 -1.007,-0.393 -1.007,-1.067 V 0 H -2.37 v 3.569 h 0.378 V 3.148 c 0.267,0.31 0.622,0.466 1.052,0.466 0.399,0 0.718,-0.119 0.947,-0.34 C 0.245,3.044 0.378,2.703 0.378,2.281 V 0 Z"
             style="fill:#003399;fill-opacity:1;fill-rule:nonzero;stroke:none"
             id="path248" /></g><g
           id="g250"
           transform="translate(273.7317,175.73)"><path
             d="M 0,0 H -1.555 V -2.133 H 0 c 0.674,0 1.163,0.341 1.163,1.067 C 1.163,-0.341 0.674,0 0,0 m 1.155,-4.917 -1.258,2.429 h -1.452 v -2.429 h -0.4 v 5.273 h 2.007 c 0.859,0 1.511,-0.497 1.511,-1.415 0,-0.785 -0.474,-1.296 -1.215,-1.422 l 1.274,-2.436 z"
             style="fill:#003399;fill-opacity:1;fill-rule:nonzero;stroke:none"
             id="path252" /></g><g
           id="g254"
           transform="translate(278.769,173.4935)"><path
             d="M 0,0 C -0.156,0.371 -0.519,0.6 -0.926,0.6 -1.333,0.6 -1.696,0.371 -1.852,0 -1.941,-0.222 -1.962,-0.333 -1.977,-0.674 H 0.126 C 0.111,-0.333 0.088,-0.222 0,0 m -1.977,-0.977 c 0,-0.904 0.407,-1.407 1.162,-1.407 0.422,0 0.682,0.126 0.985,0.429 l 0.282,-0.222 c -0.364,-0.363 -0.697,-0.548 -1.289,-0.548 -0.985,0 -1.518,0.637 -1.518,1.829 0,1.148 0.533,1.83 1.429,1.83 0.889,0 1.429,-0.652 1.429,-1.741 v -0.17 z"
             style="fill:#003399;fill-opacity:1;fill-rule:nonzero;stroke:none"
             id="path256" /></g><g
           id="g258"
           transform="translate(281.7473,174.0939)"><path
             d="m 0,0 c -0.874,0 -1.007,-0.755 -1.007,-1.496 0,-0.741 0.133,-1.496 1.007,-1.496 0.874,0 1.007,0.755 1.007,1.496 C 1.007,-0.755 0.874,0 0,0 m -0.074,-5.029 c -0.533,0 -0.8,0.141 -1.178,0.474 L -1,-4.303 c 0.282,-0.252 0.474,-0.392 0.926,-0.392 0.748,0 1.081,0.533 1.081,1.237 v 0.636 c -0.311,-0.415 -0.659,-0.503 -1.059,-0.503 -0.37,0 -0.689,0.126 -0.874,0.311 -0.363,0.363 -0.459,0.955 -0.459,1.518 0,0.562 0.096,1.155 0.459,1.518 0.185,0.185 0.504,0.311 0.874,0.311 0.4,0 0.748,-0.089 1.059,-0.504 v 0.459 h 0.378 v -3.769 c 0,-0.896 -0.534,-1.548 -1.459,-1.548"
             style="fill:#003399;fill-opacity:1;fill-rule:nonzero;stroke:none"
             id="path260" /></g><path
           d="m 284.644,174.382 h 0.378 v -3.569 h -0.378 z m -0.044,1.704 h 0.466 V 175.62 H 284.6 Z"
           style="fill:#003399;fill-opacity:1;fill-rule:nonzero;stroke:none"
           id="path262" /><g
           id="g264"
           transform="translate(288.503,173.7899)"><path
             d="m 0,0 c -0.192,0.192 -0.452,0.304 -0.741,0.304 -0.288,0 -0.548,-0.112 -0.74,-0.304 -0.296,-0.296 -0.318,-0.777 -0.318,-1.192 0,-0.415 0.022,-0.896 0.318,-1.193 0.192,-0.192 0.452,-0.303 0.74,-0.303 0.289,0 0.549,0.111 0.741,0.303 0.296,0.297 0.319,0.778 0.319,1.193 C 0.319,-0.777 0.296,-0.296 0,0 M 0.252,-2.629 C 0,-2.881 -0.341,-3.021 -0.741,-3.021 c -0.399,0 -0.74,0.14 -0.992,0.392 -0.378,0.378 -0.444,0.926 -0.444,1.437 0,0.511 0.066,1.059 0.444,1.436 0.252,0.252 0.593,0.393 0.992,0.393 0.4,0 0.741,-0.141 0.993,-0.393 0.378,-0.377 0.444,-0.925 0.444,-1.436 0,-0.511 -0.066,-1.059 -0.444,-1.437"
             style="fill:#003399;fill-opacity:1;fill-rule:nonzero;stroke:none"
             id="path266" /></g><g
           id="g268"
           transform="translate(292.8733,170.8129)"><path
             d="m 0,0 v 2.214 c 0,0.689 -0.348,1.067 -0.985,1.067 -0.637,0 -1.007,-0.393 -1.007,-1.067 V 0 H -2.37 v 3.569 h 0.378 V 3.148 c 0.267,0.31 0.622,0.466 1.052,0.466 0.399,0 0.718,-0.119 0.947,-0.34 C 0.245,3.044 0.378,2.703 0.378,2.281 V 0 Z"
             style="fill:#003399;fill-opacity:1;fill-rule:nonzero;stroke:none"
             id="path270" /></g><g
           id="g272"
           transform="translate(296.8145,172.5163)"><path
             d="m 0,0 h -1.11 c -0.615,0 -0.912,-0.245 -0.912,-0.719 0,-0.474 0.289,-0.695 0.934,-0.695 0.326,0 0.636,0.029 0.888,0.274 0.133,0.125 0.2,0.348 0.2,0.681 z m 0,-1.703 v 0.355 c -0.303,-0.304 -0.585,-0.4 -1.088,-0.4 -0.526,0 -0.822,0.089 -1.052,0.326 -0.163,0.17 -0.259,0.429 -0.259,0.696 0,0.652 0.466,1.029 1.244,1.029 H 0 v 0.4 c 0,0.571 -0.281,0.875 -1.007,0.875 -0.503,0 -0.762,-0.127 -0.985,-0.453 l -0.274,0.238 c 0.304,0.421 0.682,0.548 1.259,0.548 0.94,0 1.385,-0.422 1.385,-1.17 v -2.444 z"
             style="fill:#003399;fill-opacity:1;fill-rule:nonzero;stroke:none"
             id="path274" /></g><g
           id="g276"
           transform="translate(299.5193,170.8129)"><path
             d="m 0,0 c -0.578,0 -0.859,0.371 -0.859,0.926 v 4.347 h 0.378 v -4.34 c 0,-0.4 0.125,-0.6 0.548,-0.6 H 0.326 V 0 Z"
             style="fill:#003399;fill-opacity:1;fill-rule:nonzero;stroke:none"
             id="path278" /></g><g
           id="g280"
           transform="translate(240.8918,166.6693)"><path
             d="m 0,0 c -0.304,0.311 -0.711,0.407 -1.133,0.407 h -1.274 v -4.561 h 1.274 c 0.422,0 0.829,0.096 1.133,0.407 0.422,0.429 0.392,1.363 0.392,1.948 0,0.585 0.03,1.37 -0.392,1.799 M 0.282,-4.028 C -0.03,-4.34 -0.489,-4.51 -1.037,-4.51 h -1.77 v 5.273 h 1.77 c 0.548,0 1.007,-0.17 1.319,-0.481 0.533,-0.534 0.511,-1.371 0.511,-2.081 0,-0.712 0.022,-1.696 -0.511,-2.229"
             style="fill:#003399;fill-opacity:1;fill-rule:nonzero;stroke:none"
             id="path282" /></g><g
           id="g284"
           transform="translate(245.2332,164.8401)"><path
             d="M 0,0 C -0.155,0.371 -0.518,0.6 -0.926,0.6 -1.333,0.6 -1.696,0.371 -1.851,0 -1.94,-0.222 -1.962,-0.333 -1.977,-0.674 H 0.126 C 0.111,-0.333 0.089,-0.222 0,0 m -1.977,-0.977 c 0,-0.904 0.407,-1.407 1.162,-1.407 0.423,0 0.682,0.126 0.985,0.429 l 0.282,-0.222 c -0.363,-0.363 -0.696,-0.548 -1.289,-0.548 -0.985,0 -1.518,0.637 -1.518,1.829 0,1.148 0.533,1.83 1.429,1.83 0.889,0 1.43,-0.652 1.43,-1.741 v -0.17 z"
             style="fill:#003399;fill-opacity:1;fill-rule:nonzero;stroke:none"
             id="path286" /></g><g
           id="g288"
           transform="translate(248.019,162.1595)"><path
             d="m 0,0 h -0.37 l -1.304,3.569 h 0.415 l 1.074,-3.125 1.074,3.125 h 0.415 z"
             style="fill:#003399;fill-opacity:1;fill-rule:nonzero;stroke:none"
             id="path290" /></g><g
           id="g292"
           transform="translate(252.2931,164.8401)"><path
             d="M 0,0 C -0.155,0.371 -0.518,0.6 -0.926,0.6 -1.333,0.6 -1.696,0.371 -1.851,0 -1.94,-0.222 -1.962,-0.333 -1.977,-0.674 H 0.126 C 0.111,-0.333 0.089,-0.222 0,0 m -1.977,-0.977 c 0,-0.904 0.407,-1.407 1.162,-1.407 0.423,0 0.682,0.126 0.985,0.429 l 0.282,-0.222 c -0.363,-0.363 -0.696,-0.548 -1.289,-0.548 -0.985,0 -1.518,0.637 -1.518,1.829 0,1.148 0.533,1.83 1.429,1.83 0.889,0 1.43,-0.652 1.43,-1.741 v -0.17 z"
             style="fill:#003399;fill-opacity:1;fill-rule:nonzero;stroke:none"
             id="path294" /></g><g
           id="g296"
           transform="translate(254.9382,162.1595)"><path
             d="m 0,0 c -0.578,0 -0.859,0.371 -0.859,0.926 v 4.347 h 0.378 v -4.34 c 0,-0.4 0.125,-0.6 0.548,-0.6 H 0.326 V 0 Z"
             style="fill:#003399;fill-opacity:1;fill-rule:nonzero;stroke:none"
             id="path298" /></g><g
           id="g300"
           transform="translate(258.1158,165.1365)"><path
             d="m 0,0 c -0.192,0.192 -0.452,0.304 -0.741,0.304 -0.288,0 -0.548,-0.112 -0.74,-0.304 -0.296,-0.296 -0.318,-0.777 -0.318,-1.192 0,-0.415 0.022,-0.896 0.318,-1.193 0.192,-0.192 0.452,-0.303 0.74,-0.303 0.289,0 0.549,0.111 0.741,0.303 0.296,0.297 0.319,0.778 0.319,1.193 C 0.319,-0.777 0.296,-0.296 0,0 M 0.252,-2.629 C 0,-2.881 -0.341,-3.021 -0.741,-3.021 c -0.399,0 -0.74,0.14 -0.992,0.392 -0.378,0.378 -0.444,0.926 -0.444,1.437 0,0.511 0.066,1.059 0.444,1.436 0.252,0.252 0.593,0.393 0.992,0.393 0.4,0 0.741,-0.141 0.993,-0.393 0.378,-0.377 0.444,-0.925 0.444,-1.436 0,-0.511 -0.066,-1.059 -0.444,-1.437"
             style="fill:#003399;fill-opacity:1;fill-rule:nonzero;stroke:none"
             id="path302" /></g><g
           id="g304"
           transform="translate(261.5021,165.4405)"><path
             d="m 0,0 c -0.874,0 -1.007,-0.755 -1.007,-1.496 0,-0.741 0.133,-1.496 1.007,-1.496 0.874,0 1.007,0.755 1.007,1.496 C 1.007,-0.755 0.874,0 0,0 M 0.925,-3.014 C 0.741,-3.199 0.422,-3.325 0.052,-3.325 c -0.4,0 -0.748,0.088 -1.059,0.503 v -2.162 h -0.378 v 5.272 h 0.378 v -0.459 c 0.311,0.415 0.659,0.504 1.059,0.504 0.37,0 0.689,-0.126 0.873,-0.311 0.364,-0.363 0.459,-0.956 0.459,-1.518 0,-0.563 -0.095,-1.155 -0.459,-1.518"
             style="fill:#003399;fill-opacity:1;fill-rule:nonzero;stroke:none"
             id="path306" /></g><g
           id="g308"
           transform="translate(268.931,162.1595)"><path
             d="m 0,0 v 2.214 c 0,0.689 -0.348,1.067 -0.985,1.067 -0.614,0 -1.007,-0.393 -1.007,-1 V 0 H -2.37 v 2.214 c 0,0.689 -0.347,1.067 -0.984,1.067 -0.638,0 -1.008,-0.393 -1.008,-1.067 V 0 H -4.74 v 3.569 h 0.378 V 3.148 c 0.26,0.303 0.63,0.466 1.059,0.466 0.526,0 0.933,-0.23 1.148,-0.652 0.267,0.422 0.689,0.652 1.215,0.652 0.392,0 0.718,-0.126 0.94,-0.34 C 0.237,3.044 0.371,2.703 0.371,2.281 V 0 Z"
             style="fill:#003399;fill-opacity:1;fill-rule:nonzero;stroke:none"
             id="path310" /></g><g
           id="g312"
           transform="translate(272.9183,164.8401)"><path
             d="M 0,0 C -0.156,0.371 -0.519,0.6 -0.926,0.6 -1.333,0.6 -1.696,0.371 -1.852,0 -1.941,-0.222 -1.962,-0.333 -1.977,-0.674 H 0.126 C 0.111,-0.333 0.088,-0.222 0,0 m -1.977,-0.977 c 0,-0.904 0.407,-1.407 1.162,-1.407 0.422,0 0.682,0.126 0.985,0.429 l 0.282,-0.222 c -0.364,-0.363 -0.697,-0.548 -1.289,-0.548 -0.985,0 -1.518,0.637 -1.518,1.829 0,1.148 0.533,1.83 1.429,1.83 0.889,0 1.429,-0.652 1.429,-1.741 v -0.17 z"
             style="fill:#003399;fill-opacity:1;fill-rule:nonzero;stroke:none"
             id="path314" /></g><g
           id="g316"
           transform="translate(277.0887,162.1595)"><path
             d="m 0,0 v 2.214 c 0,0.689 -0.348,1.067 -0.985,1.067 -0.637,0 -1.007,-0.393 -1.007,-1.067 V 0 H -2.37 v 3.569 h 0.378 V 3.148 c 0.267,0.31 0.622,0.466 1.052,0.466 0.399,0 0.718,-0.119 0.947,-0.34 C 0.245,3.044 0.378,2.703 0.378,2.281 V 0 Z"
             style="fill:#003399;fill-opacity:1;fill-rule:nonzero;stroke:none"
             id="path318" /></g><g
           id="g320"
           transform="translate(279.8813,162.1595)"><path
             d="m 0,0 c -0.562,0 -0.859,0.392 -0.859,0.933 v 2.355 h -0.489 v 0.281 h 0.489 V 4.71 h 0.378 V 3.569 H 0.326 V 3.288 H -0.481 V 0.926 c 0,-0.37 0.17,-0.593 0.548,-0.593 H 0.326 V 0 Z"
             style="fill:#003399;fill-opacity:1;fill-rule:nonzero;stroke:none"
             id="path322" /></g><g
           id="g324"
           transform="translate(283.8748,167.0766)"><path
             d="M 0,0 V -2.17 H 2.385 V -2.525 H 0 V -4.917 H -0.4 V 0.356 H 2.8 V 0 Z"
             style="fill:#003399;fill-opacity:1;fill-rule:nonzero;stroke:none"
             id="path326" /></g><g
           id="g328"
           transform="translate(289.8227,162.1595)"><path
             d="m 0,0 v 0.422 c -0.267,-0.311 -0.622,-0.466 -1.051,-0.466 -0.401,0 -0.719,0.118 -0.948,0.34 -0.238,0.23 -0.371,0.57 -0.371,0.993 v 2.28 h 0.378 V 1.355 c 0,-0.689 0.348,-1.066 0.985,-1.066 C -0.37,0.289 0,0.681 0,1.355 V 3.569 H 0.377 V 0 Z"
             style="fill:#003399;fill-opacity:1;fill-rule:nonzero;stroke:none"
             id="path330" /></g><g
           id="g332"
           transform="translate(294.0822,162.1595)"><path
             d="m 0,0 v 2.214 c 0,0.689 -0.348,1.067 -0.985,1.067 -0.637,0 -1.007,-0.393 -1.007,-1.067 V 0 H -2.37 v 3.569 h 0.378 V 3.148 c 0.267,0.31 0.622,0.466 1.052,0.466 0.399,0 0.718,-0.119 0.947,-0.34 C 0.245,3.044 0.378,2.703 0.378,2.281 V 0 Z"
             style="fill:#003399;fill-opacity:1;fill-rule:nonzero;stroke:none"
             id="path334" /></g><g
           id="g336"
           transform="translate(297.1053,165.4405)"><path
             d="m 0,0 c -0.874,0 -1.007,-0.755 -1.007,-1.496 0,-0.741 0.133,-1.496 1.007,-1.496 0.874,0 1.007,0.755 1.007,1.496 C 1.007,-0.755 0.874,0 0,0 m 1.007,-3.281 v 0.459 c -0.311,-0.415 -0.659,-0.503 -1.059,-0.503 -0.37,0 -0.689,0.126 -0.874,0.311 -0.363,0.363 -0.459,0.955 -0.459,1.518 0,0.562 0.096,1.155 0.459,1.518 0.185,0.185 0.504,0.311 0.874,0.311 0.4,0 0.748,-0.089 1.059,-0.504 v 2.163 h 0.378 v -5.273 z"
             style="fill:#003399;fill-opacity:1;fill-rule:nonzero;stroke:none"
             id="path338" /></g></g></g></g></svg>
