<?xml version="1.0" encoding="UTF-8" standalone="no"?>
<svg
   xmlns:dc="http://purl.org/dc/elements/1.1/"
   xmlns:cc="http://creativecommons.org/ns#"
   xmlns:rdf="http://www.w3.org/1999/02/22-rdf-syntax-ns#"
   xmlns:svg="http://www.w3.org/2000/svg"
   xmlns="http://www.w3.org/2000/svg"
   version="1.1"
   id="svg2"
   xml:space="preserve"
   width="429.78934"
   height="114.56013"
   viewBox="0 0 429.78934 114.56013"><metadata
     id="metadata8"><rdf:RDF><cc:Work
         rdf:about=""><dc:format>image/svg+xml</dc:format><dc:type
           rdf:resource="http://purl.org/dc/dcmitype/StillImage" /><dc:title></dc:title></cc:Work></rdf:RDF></metadata><defs
     id="defs6"><clipPath
       clipPathUnits="userSpaceOnUse"
       id="clipPath42"><path
         d="M 0,255.12 H 595.28 V 0 H 0 Z"
         id="path40" /></clipPath></defs><g
     id="g10"
     transform="matrix(1.3333333,0,0,-1.3333333,-183.71466,226.14533)"><path
       d="m 436.174,87.826 h 22.454 v 56.596 h -22.454 z"
       style="fill:#69be28;fill-opacity:1;fill-rule:nonzero;stroke:none"
       id="path12" /><path
       d="m 395.147,87.826 h 37.421 v 56.582 h -37.421 z"
       style="fill:#003399;fill-opacity:1;fill-rule:nonzero;stroke:none"
       id="path14" /><g
       id="g16"
       transform="translate(437.1171,137.153)"><path
         d="M 0,0 -1.733,5.32 -3.468,0 l -5.599,-0.01 4.526,-3.287 -1.747,-5.342 4.554,3.303 4.547,-3.303 -1.738,5.341 4.528,3.288 z"
         style="fill:#ffcc00;fill-opacity:1;fill-rule:nonzero;stroke:none"
         id="path18" /></g><g
       id="g20"
       transform="translate(446.5129,122.6241)"><path
         d="M 0,0 -1.731,5.318 -3.465,0 l -5.599,-0.014 4.525,-3.285 -1.745,-5.344 4.551,3.304 4.547,-3.304 -1.738,5.342 4.53,3.287 z"
         style="fill:#ffcc00;fill-opacity:1;fill-rule:nonzero;stroke:none"
         id="path22" /></g><g
       id="g24"
       transform="translate(442.4448,105.894)"><path
         d="M 0,0 -1.731,5.322 -3.465,0 l -5.602,-0.008 4.524,-3.288 -1.742,-5.345 4.548,3.305 4.55,-3.305 -1.738,5.343 4.528,3.29 z"
         style="fill:#ffcc00;fill-opacity:1;fill-rule:nonzero;stroke:none"
         id="path26" /></g><g
       id="g28"
       transform="translate(424.0845,98.4149)"><path
         d="M 0,0 -1.733,5.319 -3.471,0 l -5.597,-0.012 4.525,-3.284 -1.744,-5.347 4.551,3.306 4.545,-3.306 -1.738,5.344 4.532,3.287 z"
         style="fill:#ffcc00;fill-opacity:1;fill-rule:nonzero;stroke:none"
         id="path30" /></g><g
       id="g32"
       transform="translate(408.2276,105.1302)"><path
         d="M 0,0 -1.73,5.318 -3.468,0 l -5.599,-0.013 4.526,-3.286 -1.743,-5.343 4.55,3.304 4.547,-3.304 -1.739,5.342 4.529,3.287 z"
         style="fill:#ffcc00;fill-opacity:1;fill-rule:nonzero;stroke:none"
         id="path34" /></g><g
       id="g36"><g
         id="g38"
         clip-path="url(#clipPath42)"><g
           id="g44"
           transform="translate(383.7121,133.3704)"><path
             d="M 0,0 H -17.437 V 6.34 H 4.394 v 4.398 H -21.834 V -15.49 H 4.394 v 4.398 h -21.831 v 6.734 L 0,-4.358 V 0 m -26.217,2.22 v 1.942 c 0,3.644 -2.935,6.576 -6.58,6.576 H -52.449 V -15.49 h 4.4 v 11.132 h 15.252 c 1.23,0 2.179,-0.949 2.179,-2.216 v -8.916 h 4.401 v 8.916 c 0,1.703 -0.637,3.207 -1.626,4.396 0.989,1.189 1.626,2.694 1.626,4.398 m -21.832,4.12 h 15.252 c 1.23,0 2.179,-0.951 2.179,-2.178 V 2.22 C -30.618,0.953 -31.567,0 -32.797,0 h -15.252 z m -29.11,-21.83 v 11.132 h 17.432 V 0 h -17.432 v 6.34 h 21.828 v 4.398 H -81.559 V -15.49 Z M -89.24,0 h -17.432 v 6.34 h 21.83 v 4.398 h -26.229 V -15.49 h 26.229 v 4.398 h -21.83 v 6.734 h 17.432 z"
             style="fill:#003399;fill-opacity:1;fill-rule:nonzero;stroke:none"
             id="path46" /></g><path
           d="m 139.286,167.997 h 96.196 v -65.003 h -96.196 z"
           style="fill:#003399;fill-opacity:1;fill-rule:nonzero;stroke:none"
           id="path48" /><g
           id="g50"
           transform="translate(185.3342,153.8341)"><path
             d="M 0,0 2.03,1.501 4.06,0 3.288,2.428 5.349,3.93 H 2.808 L 2.03,6.387 1.252,3.927 -1.287,3.93 0.773,2.428 Z"
             style="fill:#ffcc00;fill-opacity:1;fill-rule:nonzero;stroke:none"
             id="path52" /></g><g
           id="g54"
           transform="translate(174.8304,150.9734)"><path
             d="M 0,0 2.029,1.501 4.058,0 3.287,2.428 5.348,3.929 H 2.807 L 2.028,6.39 1.25,3.927 -1.289,3.929 0.771,2.428 Z"
             style="fill:#ffcc00;fill-opacity:1;fill-rule:nonzero;stroke:none"
             id="path56" /></g><g
           id="g58"
           transform="translate(169.1741,149.5556)"><path
             d="m 0,0 -0.778,-2.463 -2.54,0.003 2.06,-1.502 L -2.03,-6.391 0,-4.889 2.03,-6.391 1.257,-3.962 3.318,-2.46 H 0.777 Z"
             style="fill:#ffcc00;fill-opacity:1;fill-rule:nonzero;stroke:none"
             id="path60" /></g><g
           id="g62"
           transform="translate(166.3535,134.0332)"><path
             d="M 0,0 2.03,-1.501 1.259,0.927 3.319,2.428 H 0.778 L 0,4.889 -0.777,2.423 -3.318,2.428 -1.257,0.927 -2.029,-1.501 Z"
             style="fill:#ffcc00;fill-opacity:1;fill-rule:nonzero;stroke:none"
             id="path64" /></g><g
           id="g66"
           transform="translate(169.9515,125.7956)"><path
             d="M 0,0 -0.777,2.46 -1.555,-0.003 -4.096,0 -2.036,-1.502 -2.808,-3.929 -0.777,-2.426 1.252,-3.929 0.48,-1.502 2.54,0 Z"
             style="fill:#ffcc00;fill-opacity:1;fill-rule:nonzero;stroke:none"
             id="path68" /></g><g
           id="g70"
           transform="translate(177.6525,117.9897)"><path
             d="M 0,0 -0.778,2.458 -1.554,-0.002 -4.095,0 l 2.06,-1.5 -0.772,-2.429 2.03,1.501 L 1.252,-3.929 0.48,-1.5 2.542,0 Z"
             style="fill:#ffcc00;fill-opacity:1;fill-rule:nonzero;stroke:none"
             id="path72" /></g><g
           id="g74"
           transform="translate(188.1437,115.1618)"><path
             d="M 0,0 -0.778,2.46 -1.554,-0.003 -4.096,0 -2.036,-1.501 -2.807,-3.929 -0.776,-2.428 1.252,-3.929 0.479,-1.501 2.541,0 Z"
             style="fill:#ffcc00;fill-opacity:1;fill-rule:nonzero;stroke:none"
             id="path76" /></g><g
           id="g78"
           transform="translate(198.6348,117.9897)"><path
             d="M 0,0 -0.776,2.458 -1.556,-0.002 -4.095,0 -2.036,-1.5 -2.807,-3.929 -0.776,-2.428 1.253,-3.929 0.479,-1.5 2.541,0 Z"
             style="fill:#ffcc00;fill-opacity:1;fill-rule:nonzero;stroke:none"
             id="path80" /></g><g
           id="g82"
           transform="translate(206.3378,125.7956)"><path
             d="M 0,0 -0.779,2.46 -1.558,-0.003 -4.097,0 l 2.061,-1.502 -0.773,-2.427 2.03,1.503 2.03,-1.503 L 0.477,-1.502 2.538,0 Z"
             style="fill:#ffcc00;fill-opacity:1;fill-rule:nonzero;stroke:none"
             id="path84" /></g><g
           id="g86"
           transform="translate(211.6673,136.4903)"><path
             d="M 0,0 H -2.542 L -3.321,2.461 -4.097,-0.002 -6.638,0 l 2.061,-1.5 -0.771,-2.429 2.027,1.504 2.03,-1.504 -0.771,2.429 z"
             style="fill:#ffcc00;fill-opacity:1;fill-rule:nonzero;stroke:none"
             id="path88" /></g><g
           id="g90"
           transform="translate(203.5293,143.198)"><path
             d="M 0,0 2.029,1.5 4.059,0 3.286,2.427 5.347,3.926 H 2.809 L 2.029,6.387 1.251,3.924 -1.288,3.926 0.773,2.427 Z"
             style="fill:#ffcc00;fill-opacity:1;fill-rule:nonzero;stroke:none"
             id="path92" /></g><g
           id="g94"
           transform="translate(197.8871,157.3606)"><path
             d="m 0,0 -0.776,-2.463 -2.541,0.005 2.059,-1.504 -0.771,-2.427 2.032,1.503 2.027,-1.503 -0.772,2.427 2.062,1.504 H 0.776 Z"
             style="fill:#ffcc00;fill-opacity:1;fill-rule:nonzero;stroke:none"
             id="path96" /></g><g
           id="g98"
           transform="translate(272.6977,153.6586)"><path
             d="M 0,0 V 14.33 H 8.695 V 13.364 H 1.087 V 7.708 h 6.48 V 6.742 H 1.087 V 0.966 H 8.695 V 0 Z"
             style="fill:#003399;fill-opacity:1;fill-rule:nonzero;stroke:none"
             id="path100" /></g><g
           id="g102"
           transform="translate(290.8725,153.6586)"><path
             d="m 0,0 v 1.147 c -0.725,-0.845 -1.69,-1.268 -2.858,-1.268 -1.087,0 -1.952,0.322 -2.576,0.926 -0.644,0.624 -1.006,1.55 -1.006,2.697 v 6.199 h 1.026 V 3.683 c 0,-1.871 0.946,-2.898 2.677,-2.898 C -1.006,0.785 0,1.852 0,3.683 V 9.701 H 1.026 V 0 Z"
             style="fill:#003399;fill-opacity:1;fill-rule:nonzero;stroke:none"
             id="path104" /></g><g
           id="g106"
           transform="translate(301.3388,161.81)"><path
             d="m 0,0 c -0.584,0.583 -1.026,0.765 -1.832,0.765 -1.67,0 -2.596,-1.369 -2.596,-2.939 v -5.977 h -1.026 v 9.7 h 1.026 V 0.261 c 0.564,0.906 1.691,1.409 2.838,1.409 0.926,0 1.651,-0.241 2.334,-0.925 z"
             style="fill:#003399;fill-opacity:1;fill-rule:nonzero;stroke:none"
             id="path108" /></g><g
           id="g110"
           transform="translate(308.8417,161.7495)"><path
             d="M 0,0 C -0.523,0.523 -1.228,0.825 -2.013,0.825 -2.798,0.825 -3.502,0.523 -4.025,0 -4.83,-0.805 -4.891,-2.113 -4.891,-3.24 c 0,-1.128 0.061,-2.436 0.866,-3.24 0.523,-0.524 1.227,-0.826 2.012,-0.826 0.785,0 1.49,0.302 2.013,0.826 0.806,0.804 0.865,2.112 0.865,3.24 C 0.865,-2.113 0.806,-0.805 0,0 M 0.685,-7.145 C 0,-7.829 -0.926,-8.211 -2.013,-8.211 c -1.087,0 -2.012,0.382 -2.696,1.066 -1.026,1.026 -1.208,2.516 -1.208,3.905 0,1.388 0.182,2.878 1.208,3.904 0.684,0.685 1.609,1.067 2.696,1.067 1.087,0 2.013,-0.382 2.698,-1.067 1.026,-1.026 1.207,-2.516 1.207,-3.904 0,-1.389 -0.181,-2.879 -1.207,-3.905"
             style="fill:#003399;fill-opacity:1;fill-rule:nonzero;stroke:none"
             id="path112" /></g><g
           id="g114"
           transform="translate(317.9199,162.5747)"><path
             d="m 0,0 c -2.375,0 -2.737,-2.053 -2.737,-4.065 0,-2.013 0.362,-4.066 2.737,-4.066 2.375,0 2.737,2.053 2.737,4.066 C 2.737,-2.053 2.375,0 0,0 M 2.516,-8.191 C 2.013,-8.695 1.147,-9.037 0.141,-9.037 c -1.087,0 -2.033,0.242 -2.878,1.369 v -5.877 h -1.027 v 14.33 h 1.027 v -1.248 c 0.845,1.127 1.791,1.369 2.878,1.369 1.006,0 1.872,-0.343 2.375,-0.845 0.986,-0.987 1.248,-2.597 1.248,-4.126 0,-1.53 -0.262,-3.14 -1.248,-4.126"
             style="fill:#003399;fill-opacity:1;fill-rule:nonzero;stroke:none"
             id="path116" /></g><g
           id="g118"
           transform="translate(330.9423,160.9443)"><path
             d="M 0,0 C -0.423,1.006 -1.409,1.63 -2.516,1.63 -3.623,1.63 -4.609,1.006 -5.032,0 -5.273,-0.604 -5.334,-0.906 -5.374,-1.832 H 0.342 C 0.302,-0.906 0.241,-0.604 0,0 m -5.374,-2.657 c 0,-2.455 1.107,-3.823 3.16,-3.823 1.148,0 1.852,0.341 2.677,1.167 l 0.765,-0.604 c -0.987,-0.986 -1.892,-1.489 -3.502,-1.489 -2.677,0 -4.126,1.731 -4.126,4.971 0,3.12 1.449,4.971 3.884,4.971 2.415,0 3.884,-1.771 3.884,-4.73 v -0.463 z"
             style="fill:#003399;fill-opacity:1;fill-rule:nonzero;stroke:none"
             id="path120" /></g><g
           id="g122"
           transform="translate(342.2538,162.5947)"><path
             d="M 0,0 V -8.936 H -1.026 V 0 h -1.328 v 0.765 h 1.328 v 2.093 c 0,1.469 0.805,2.536 2.335,2.536 H 2.194 V 4.488 H 1.489 C 0.463,4.488 0,3.884 0,2.878 V 0.765 H 2.194 V 0 Z"
             style="fill:#003399;fill-opacity:1;fill-rule:nonzero;stroke:none"
             id="path124" /></g><g
           id="g126"
           transform="translate(353.4443,153.6586)"><path
             d="m 0,0 v 1.147 c -0.724,-0.845 -1.69,-1.268 -2.857,-1.268 -1.087,0 -1.953,0.322 -2.577,0.926 -0.644,0.624 -1.006,1.55 -1.006,2.697 v 6.199 h 1.027 V 3.683 c 0,-1.871 0.945,-2.898 2.677,-2.898 C -1.006,0.785 0,1.852 0,3.683 V 9.701 H 1.027 V 0 Z"
             style="fill:#003399;fill-opacity:1;fill-rule:nonzero;stroke:none"
             id="path128" /></g><g
           id="g130"
           transform="translate(364.8964,153.6586)"><path
             d="m 0,0 v 6.018 c 0,1.872 -0.946,2.898 -2.677,2.898 -1.73,0 -2.737,-1.067 -2.737,-2.898 V 0 H -6.44 v 9.701 h 1.026 V 8.554 c 0.725,0.845 1.69,1.268 2.858,1.268 1.087,0 1.952,-0.322 2.577,-0.926 C 0.664,8.272 1.026,7.346 1.026,6.199 V 0 Z"
             style="fill:#003399;fill-opacity:1;fill-rule:nonzero;stroke:none"
             id="path132" /></g><g
           id="g134"
           transform="translate(372.9872,162.5747)"><path
             d="m 0,0 c -2.375,0 -2.737,-2.053 -2.737,-4.065 0,-2.013 0.362,-4.066 2.737,-4.066 2.375,0 2.737,2.053 2.737,4.066 C 2.737,-2.053 2.375,0 0,0 m 2.737,-8.916 v 1.248 c -0.845,-1.127 -1.791,-1.369 -2.878,-1.369 -1.006,0 -1.872,0.342 -2.375,0.846 -0.986,0.986 -1.248,2.596 -1.248,4.126 0,1.529 0.262,3.139 1.248,4.126 0.503,0.502 1.369,0.845 2.375,0.845 1.087,0 2.033,-0.242 2.878,-1.369 v 5.877 h 1.027 v -14.33 z"
             style="fill:#003399;fill-opacity:1;fill-rule:nonzero;stroke:none"
             id="path136" /></g><g
           id="g138"
           transform="translate(383.7158,153.538)"><path
             d="m 0,0 c -1.69,0 -2.938,0.443 -3.925,1.389 l 0.705,0.704 c 0.765,-0.805 1.791,-1.187 3.18,-1.187 1.892,0 2.918,0.664 2.918,1.972 0,1.006 -0.583,1.509 -1.852,1.63 l -1.609,0.141 c -1.952,0.161 -2.919,1.026 -2.919,2.536 0,1.67 1.369,2.757 3.482,2.757 1.329,0 2.556,-0.382 3.402,-1.026 L 2.697,8.231 c -0.745,0.544 -1.65,0.826 -2.717,0.826 -1.589,0 -2.475,-0.684 -2.475,-1.872 0,-1.006 0.603,-1.51 1.972,-1.63 L 1.047,5.414 C 2.657,5.273 3.885,4.77 3.885,2.878 3.885,1.107 2.375,0 0,0"
             style="fill:#003399;fill-opacity:1;fill-rule:nonzero;stroke:none"
             id="path140" /></g><g
           id="g142"
           transform="translate(399.8193,153.538)"><path
             d="m 0,0 c -2.134,0 -3.462,0.583 -4.771,1.892 l 0.765,0.765 c 1.288,-1.288 2.335,-1.691 4.066,-1.691 2.254,0 3.683,1.087 3.683,2.958 0,0.846 -0.262,1.55 -0.785,2.013 C 2.435,6.38 2.053,6.521 0.885,6.702 l -1.67,0.261 c -1.087,0.162 -1.952,0.524 -2.557,1.047 -0.764,0.644 -1.127,1.53 -1.127,2.636 0,2.396 1.711,3.925 4.448,3.925 1.772,0 2.899,-0.483 4.126,-1.55 L 3.4,12.317 c -0.884,0.785 -1.77,1.329 -3.481,1.329 -2.073,0 -3.32,-1.147 -3.32,-2.959 0,-0.825 0.241,-1.449 0.744,-1.872 C -2.154,8.393 -1.329,8.05 -0.523,7.93 L 1.026,7.688 C 2.374,7.487 2.979,7.245 3.582,6.742 4.367,6.098 4.83,5.112 4.83,3.965 4.83,1.55 2.979,0 0,0"
             style="fill:#003399;fill-opacity:1;fill-rule:nonzero;stroke:none"
             id="path144" /></g><g
           id="g146"
           transform="translate(413.5654,158.2876)"><path
             d="m 0,0 h -3.02 c -1.669,0 -2.475,-0.664 -2.475,-1.952 0,-1.288 0.785,-1.892 2.536,-1.892 0.886,0 1.73,0.08 2.415,0.745 C -0.182,-2.757 0,-2.153 0,-1.248 Z m 0,-4.629 v 0.966 c -0.825,-0.825 -1.591,-1.087 -2.959,-1.087 -1.429,0 -2.234,0.242 -2.858,0.886 -0.443,0.463 -0.704,1.167 -0.704,1.892 0,1.771 1.268,2.797 3.38,2.797 H 0 v 1.087 c 0,1.55 -0.766,2.375 -2.737,2.375 -1.369,0 -2.074,-0.342 -2.677,-1.227 l -0.745,0.644 c 0.825,1.147 1.851,1.489 3.422,1.489 2.555,0 3.763,-1.148 3.763,-3.18 v -6.642 z"
             style="fill:#003399;fill-opacity:1;fill-rule:nonzero;stroke:none"
             id="path148" /></g><g
           id="g150"
           transform="translate(423.7499,153.6586)"><path
             d="M 0,0 -2.556,4.085 -5.152,0 H -6.4 l 3.281,4.951 -3.14,4.75 h 1.247 l 2.456,-3.905 2.415,3.905 H 1.107 L -2.032,4.951 1.248,0 Z"
             style="fill:#003399;fill-opacity:1;fill-rule:nonzero;stroke:none"
             id="path152" /></g><g
           id="g154"
           transform="translate(432.787,161.7495)"><path
             d="M 0,0 C -0.523,0.523 -1.228,0.825 -2.013,0.825 -2.798,0.825 -3.502,0.523 -4.025,0 -4.83,-0.805 -4.891,-2.113 -4.891,-3.24 c 0,-1.128 0.061,-2.436 0.866,-3.24 0.523,-0.524 1.227,-0.826 2.012,-0.826 0.785,0 1.49,0.302 2.013,0.826 0.806,0.804 0.865,2.112 0.865,3.24 C 0.865,-2.113 0.806,-0.805 0,0 M 0.685,-7.145 C 0,-7.829 -0.926,-8.211 -2.013,-8.211 c -1.087,0 -2.012,0.382 -2.696,1.066 -1.026,1.026 -1.208,2.516 -1.208,3.905 0,1.388 0.182,2.878 1.208,3.904 0.684,0.685 1.609,1.067 2.696,1.067 1.087,0 2.013,-0.382 2.698,-1.067 1.026,-1.026 1.207,-2.516 1.207,-3.904 0,-1.389 -0.181,-2.879 -1.207,-3.905"
             style="fill:#003399;fill-opacity:1;fill-rule:nonzero;stroke:none"
             id="path156" /></g><g
           id="g158"
           transform="translate(444.5419,153.6586)"><path
             d="m 0,0 v 6.018 c 0,1.872 -0.946,2.898 -2.677,2.898 -1.73,0 -2.737,-1.067 -2.737,-2.898 V 0 H -6.44 v 9.701 h 1.026 V 8.554 c 0.725,0.845 1.69,1.268 2.858,1.268 1.087,0 1.952,-0.322 2.577,-0.926 C 0.664,8.272 1.026,7.346 1.026,6.199 V 0 Z"
             style="fill:#003399;fill-opacity:1;fill-rule:nonzero;stroke:none"
             id="path160" /></g><g
           id="g162"
           transform="translate(451.3447,151.0219)"><path
             d="M 0,0 C -0.181,-0.523 -0.383,-0.885 -0.664,-1.127 -1.147,-1.59 -1.852,-1.751 -2.496,-1.751 h -0.483 v 0.906 h 0.382 c 1.108,0 1.41,0.362 1.772,1.328 l 0.785,2.154 -3.542,9.7 h 1.127 l 2.918,-8.493 2.918,8.493 h 1.127 z"
             style="fill:#003399;fill-opacity:1;fill-rule:nonzero;stroke:none"
             id="path164" /></g><path
           d="m 456.718,155.148 h 1.489 v -1.489 h -1.489 z"
           style="fill:#003399;fill-opacity:1;fill-rule:nonzero;stroke:none"
           id="path166" /><g
           id="g168"
           transform="translate(272.6733,101.4277)"><path
             d="M 0,0 V 8.268 H 5.016 V 7.71 H 0.627 V 4.447 H 4.366 V 3.89 H 0.627 V 0.558 H 5.016 V 0 Z"
             style="fill:#003399;fill-opacity:1;fill-rule:nonzero;stroke:none"
             id="path170" /></g><g
           id="g172"
           transform="translate(283.2309,101.4277)"><path
             d="m 0,0 v 0.662 c -0.418,-0.488 -0.976,-0.731 -1.649,-0.731 -0.627,0 -1.126,0.185 -1.486,0.534 -0.372,0.359 -0.581,0.893 -0.581,1.556 v 3.576 h 0.592 V 2.125 c 0,-1.08 0.546,-1.672 1.545,-1.672 C -0.581,0.453 0,1.068 0,2.125 V 5.597 H 0.592 V 0 Z"
             style="fill:#003399;fill-opacity:1;fill-rule:nonzero;stroke:none"
             id="path174" /></g><g
           id="g176"
           transform="translate(289.3412,106.1308)"><path
             d="m 0,0 c -0.337,0.337 -0.592,0.441 -1.057,0.441 -0.964,0 -1.498,-0.79 -1.498,-1.695 v -3.449 h -0.592 v 5.597 h 0.592 V 0.15 c 0.326,0.523 0.975,0.814 1.638,0.814 0.534,0 0.952,-0.14 1.346,-0.534 z"
             style="fill:#003399;fill-opacity:1;fill-rule:nonzero;stroke:none"
             id="path178" /></g><g
           id="g180"
           transform="translate(293.7421,106.0957)"><path
             d="m 0,0 c -0.302,0.302 -0.708,0.477 -1.162,0.477 -0.452,0 -0.859,-0.175 -1.161,-0.477 -0.464,-0.465 -0.499,-1.219 -0.499,-1.869 0,-0.651 0.035,-1.405 0.499,-1.87 0.302,-0.302 0.709,-0.476 1.161,-0.476 0.454,0 0.86,0.174 1.162,0.476 0.464,0.465 0.499,1.219 0.499,1.87 C 0.499,-1.219 0.464,-0.465 0,0 M 0.395,-4.122 C 0,-4.517 -0.534,-4.737 -1.162,-4.737 c -0.627,0 -1.161,0.22 -1.555,0.615 -0.593,0.592 -0.697,1.451 -0.697,2.253 0,0.801 0.104,1.66 0.697,2.252 0.394,0.395 0.928,0.616 1.555,0.616 0.628,0 1.162,-0.221 1.557,-0.616 0.592,-0.592 0.696,-1.451 0.696,-2.252 0,-0.802 -0.104,-1.661 -0.696,-2.253"
             style="fill:#003399;fill-opacity:1;fill-rule:nonzero;stroke:none"
             id="path182" /></g><g
           id="g184"
           transform="translate(299.0497,106.5722)"><path
             d="m 0,0 c -1.369,0 -1.578,-1.185 -1.578,-2.346 0,-1.161 0.209,-2.345 1.578,-2.345 1.371,0 1.58,1.184 1.58,2.345 C 1.58,-1.185 1.371,0 0,0 m 1.452,-4.727 c -0.29,-0.29 -0.79,-0.487 -1.37,-0.487 -0.627,0 -1.172,0.139 -1.66,0.789 v -3.39 H -2.17 v 8.267 h 0.592 v -0.72 c 0.488,0.651 1.033,0.79 1.66,0.79 0.58,0 1.08,-0.198 1.37,-0.488 0.569,-0.568 0.72,-1.498 0.72,-2.38 0,-0.883 -0.151,-1.811 -0.72,-2.381"
             style="fill:#003399;fill-opacity:1;fill-rule:nonzero;stroke:none"
             id="path186" /></g><g
           id="g188"
           transform="translate(306.6357,105.6308)"><path
             d="M 0,0 C -0.244,0.581 -0.813,0.941 -1.452,0.941 -2.091,0.941 -2.659,0.581 -2.903,0 -3.043,-0.348 -3.077,-0.522 -3.101,-1.057 H 0.197 C 0.174,-0.522 0.139,-0.348 0,0 m -3.101,-1.532 c 0,-1.417 0.639,-2.206 1.824,-2.206 0.661,0 1.068,0.197 1.544,0.673 l 0.441,-0.348 c -0.569,-0.569 -1.092,-0.859 -2.02,-0.859 -1.544,0 -2.381,0.998 -2.381,2.868 0,1.8 0.837,2.868 2.241,2.868 1.393,0 2.241,-1.023 2.241,-2.73 v -0.266 z"
             style="fill:#003399;fill-opacity:1;fill-rule:nonzero;stroke:none"
             id="path190" /></g><g
           id="g192"
           transform="translate(312.7451,104.0986)"><path
             d="m 0,0 h -1.741 c -0.964,0 -1.429,-0.384 -1.429,-1.127 0,-0.743 0.453,-1.091 1.464,-1.091 0.511,0 0.998,0.046 1.393,0.43 C -0.104,-1.591 0,-1.242 0,-0.72 Z m 0,-2.671 v 0.558 C -0.476,-2.59 -0.917,-2.74 -1.706,-2.74 c -0.825,0 -1.289,0.138 -1.649,0.511 -0.256,0.266 -0.407,0.672 -0.407,1.091 0,1.022 0.732,1.614 1.951,1.614 H 0 v 0.627 c 0,0.894 -0.44,1.371 -1.579,1.371 -0.789,0 -1.195,-0.199 -1.544,-0.709 l -0.43,0.372 c 0.476,0.661 1.069,0.859 1.974,0.859 1.475,0 2.172,-0.662 2.172,-1.835 v -3.832 z"
             style="fill:#003399;fill-opacity:1;fill-rule:nonzero;stroke:none"
             id="path194" /></g><g
           id="g196"
           transform="translate(319.3779,101.4277)"><path
             d="m 0,0 v 3.472 c 0,1.08 -0.545,1.673 -1.544,1.673 -0.999,0 -1.579,-0.617 -1.579,-1.673 V 0 h -0.593 v 5.597 h 0.593 V 4.936 c 0.418,0.487 0.976,0.731 1.648,0.731 0.627,0 1.127,-0.187 1.487,-0.534 C 0.384,4.772 0.593,4.238 0.593,3.576 V 0 Z"
             style="fill:#003399;fill-opacity:1;fill-rule:nonzero;stroke:none"
             id="path198" /></g><g
           id="g200"
           transform="translate(328.5663,109.1376)"><path
             d="M 0,0 H -2.438 V -3.344 H 0 c 1.057,0 1.823,0.534 1.823,1.672 C 1.823,-0.534 1.057,0 0,0 m 1.812,-7.71 -1.974,3.809 H -2.438 V -7.71 h -0.627 v 8.268 h 3.146 c 1.348,0 2.369,-0.779 2.369,-2.218 0,-1.231 -0.743,-2.032 -1.904,-2.23 l 1.997,-3.82 z"
             style="fill:#003399;fill-opacity:1;fill-rule:nonzero;stroke:none"
             id="path202" /></g><g
           id="g204"
           transform="translate(336.4648,105.6308)"><path
             d="M 0,0 C -0.244,0.581 -0.813,0.941 -1.452,0.941 -2.091,0.941 -2.659,0.581 -2.903,0 -3.043,-0.348 -3.077,-0.522 -3.101,-1.057 H 0.197 C 0.174,-0.522 0.139,-0.348 0,0 m -3.101,-1.532 c 0,-1.417 0.639,-2.206 1.824,-2.206 0.661,0 1.068,0.197 1.544,0.673 l 0.441,-0.348 c -0.569,-0.569 -1.092,-0.859 -2.02,-0.859 -1.544,0 -2.381,0.998 -2.381,2.868 0,1.8 0.837,2.868 2.241,2.868 1.393,0 2.241,-1.023 2.241,-2.73 v -0.266 z"
             style="fill:#003399;fill-opacity:1;fill-rule:nonzero;stroke:none"
             id="path206" /></g><g
           id="g208"
           transform="translate(341.1347,106.5722)"><path
             d="m 0,0 c -1.37,0 -1.579,-1.185 -1.579,-2.346 0,-1.161 0.209,-2.345 1.579,-2.345 1.37,0 1.579,1.184 1.579,2.345 C 1.579,-1.185 1.37,0 0,0 m -0.116,-7.885 c -0.836,0 -1.254,0.221 -1.847,0.743 l 0.396,0.395 c 0.441,-0.395 0.743,-0.615 1.451,-0.615 1.173,0 1.695,0.836 1.695,1.939 v 0.998 c -0.487,-0.65 -1.033,-0.789 -1.66,-0.789 -0.581,0 -1.08,0.197 -1.37,0.487 -0.57,0.57 -0.721,1.498 -0.721,2.381 0,0.882 0.151,1.812 0.721,2.38 0.29,0.29 0.789,0.488 1.37,0.488 0.627,0 1.173,-0.139 1.66,-0.79 v 0.72 h 0.593 v -5.91 c 0,-1.405 -0.837,-2.427 -2.288,-2.427"
             style="fill:#003399;fill-opacity:1;fill-rule:nonzero;stroke:none"
             id="path210" /></g><path
           d="m 345.677,107.024 h 0.593 v -5.597 h -0.593 z m -0.07,2.671 h 0.731 v -0.731 h -0.731 z"
           style="fill:#003399;fill-opacity:1;fill-rule:nonzero;stroke:none"
           id="path212" /><g
           id="g214"
           transform="translate(351.7275,106.0957)"><path
             d="m 0,0 c -0.302,0.302 -0.708,0.477 -1.161,0.477 -0.452,0 -0.86,-0.175 -1.161,-0.477 -0.464,-0.465 -0.499,-1.219 -0.499,-1.869 0,-0.651 0.035,-1.405 0.499,-1.87 0.301,-0.302 0.709,-0.476 1.161,-0.476 0.453,0 0.859,0.174 1.161,0.476 0.465,0.465 0.5,1.219 0.5,1.87 C 0.5,-1.219 0.465,-0.465 0,0 M 0.396,-4.122 C 0,-4.517 -0.534,-4.737 -1.161,-4.737 c -0.627,0 -1.161,0.22 -1.556,0.615 -0.593,0.592 -0.697,1.451 -0.697,2.253 0,0.801 0.104,1.66 0.697,2.252 0.395,0.395 0.929,0.616 1.556,0.616 0.627,0 1.161,-0.221 1.557,-0.616 0.591,-0.592 0.696,-1.451 0.696,-2.252 0,-0.802 -0.105,-1.661 -0.696,-2.253"
             style="fill:#003399;fill-opacity:1;fill-rule:nonzero;stroke:none"
             id="path216" /></g><g
           id="g218"
           transform="translate(358.58,101.4277)"><path
             d="m 0,0 v 3.472 c 0,1.08 -0.545,1.673 -1.544,1.673 -0.999,0 -1.579,-0.617 -1.579,-1.673 V 0 h -0.593 v 5.597 h 0.593 V 4.936 c 0.418,0.487 0.976,0.731 1.648,0.731 0.627,0 1.127,-0.187 1.487,-0.534 C 0.384,4.772 0.593,4.238 0.593,3.576 V 0 Z"
             style="fill:#003399;fill-opacity:1;fill-rule:nonzero;stroke:none"
             id="path220" /></g><g
           id="g222"
           transform="translate(364.7597,104.0986)"><path
             d="m 0,0 h -1.741 c -0.964,0 -1.429,-0.384 -1.429,-1.127 0,-0.743 0.453,-1.091 1.464,-1.091 0.511,0 0.998,0.046 1.393,0.43 C -0.104,-1.591 0,-1.242 0,-0.72 Z m 0,-2.671 v 0.558 C -0.476,-2.59 -0.917,-2.74 -1.706,-2.74 c -0.825,0 -1.289,0.138 -1.649,0.511 -0.256,0.266 -0.407,0.672 -0.407,1.091 0,1.022 0.732,1.614 1.95,1.614 H 0 v 0.627 c 0,0.894 -0.44,1.371 -1.579,1.371 -0.789,0 -1.195,-0.199 -1.544,-0.709 l -0.43,0.372 c 0.476,0.661 1.069,0.859 1.974,0.859 1.475,0 2.172,-0.662 2.172,-1.835 v -3.832 z"
             style="fill:#003399;fill-opacity:1;fill-rule:nonzero;stroke:none"
             id="path224" /></g><g
           id="g226"
           transform="translate(369.0009,101.4277)"><path
             d="m 0,0 c -0.906,0 -1.347,0.581 -1.347,1.451 v 6.817 h 0.592 V 1.463 c 0,-0.627 0.197,-0.941 0.859,-0.941 H 0.511 V 0 Z"
             style="fill:#003399;fill-opacity:1;fill-rule:nonzero;stroke:none"
             id="path228" /></g><g
           id="g230"
           transform="translate(277.0742,94.9306)"><path
             d="m 0,0 c -0.476,0.488 -1.115,0.639 -1.777,0.639 h -1.997 v -7.153 h 1.997 c 0.662,0 1.301,0.151 1.777,0.639 0.662,0.673 0.615,2.137 0.615,3.054 C 0.615,-1.904 0.662,-0.673 0,0 m 0.441,-6.316 c -0.487,-0.489 -1.208,-0.755 -2.066,-0.755 h -2.776 v 8.267 h 2.776 c 0.858,0 1.579,-0.266 2.066,-0.755 0.836,-0.836 0.802,-2.148 0.802,-3.262 0,-1.116 0.034,-2.659 -0.802,-3.495"
             style="fill:#003399;fill-opacity:1;fill-rule:nonzero;stroke:none"
             id="path232" /></g><g
           id="g234"
           transform="translate(283.8813,92.0625)"><path
             d="M 0,0 C -0.244,0.581 -0.812,0.941 -1.451,0.941 -2.09,0.941 -2.659,0.581 -2.903,0 -3.042,-0.348 -3.077,-0.522 -3.1,-1.057 H 0.198 C 0.174,-0.522 0.14,-0.348 0,0 m -3.1,-1.532 c 0,-1.417 0.639,-2.206 1.823,-2.206 0.662,0 1.068,0.197 1.544,0.673 l 0.441,-0.348 c -0.568,-0.569 -1.091,-0.859 -2.02,-0.859 -1.544,0 -2.38,0.998 -2.38,2.868 0,1.8 0.836,2.868 2.241,2.868 1.393,0 2.241,-1.023 2.241,-2.73 v -0.266 z"
             style="fill:#003399;fill-opacity:1;fill-rule:nonzero;stroke:none"
             id="path236" /></g><g
           id="g238"
           transform="translate(288.2495,87.8593)"><path
             d="m 0,0 h -0.581 l -2.043,5.597 h 0.65 L -0.29,0.696 1.394,5.597 h 0.65 z"
             style="fill:#003399;fill-opacity:1;fill-rule:nonzero;stroke:none"
             id="path240" /></g><g
           id="g242"
           transform="translate(294.9511,92.0625)"><path
             d="M 0,0 C -0.244,0.581 -0.812,0.941 -1.451,0.941 -2.09,0.941 -2.659,0.581 -2.903,0 -3.042,-0.348 -3.077,-0.522 -3.1,-1.057 H 0.198 C 0.174,-0.522 0.14,-0.348 0,0 m -3.1,-1.532 c 0,-1.417 0.639,-2.206 1.823,-2.206 0.662,0 1.068,0.197 1.544,0.673 l 0.441,-0.348 c -0.568,-0.569 -1.091,-0.859 -2.02,-0.859 -1.544,0 -2.38,0.998 -2.38,2.868 0,1.8 0.836,2.868 2.241,2.868 1.393,0 2.241,-1.023 2.241,-2.73 v -0.266 z"
             style="fill:#003399;fill-opacity:1;fill-rule:nonzero;stroke:none"
             id="path244" /></g><g
           id="g246"
           transform="translate(299.0986,87.8593)"><path
             d="m 0,0 c -0.906,0 -1.347,0.581 -1.347,1.451 v 6.817 h 0.592 V 1.463 c 0,-0.627 0.197,-0.941 0.859,-0.941 H 0.511 V 0 Z"
             style="fill:#003399;fill-opacity:1;fill-rule:nonzero;stroke:none"
             id="path248" /></g><g
           id="g250"
           transform="translate(304.081,92.5273)"><path
             d="m 0,0 c -0.302,0.302 -0.708,0.477 -1.161,0.477 -0.452,0 -0.86,-0.175 -1.161,-0.477 -0.464,-0.465 -0.499,-1.219 -0.499,-1.869 0,-0.651 0.035,-1.405 0.499,-1.87 0.301,-0.302 0.709,-0.476 1.161,-0.476 0.453,0 0.859,0.174 1.161,0.476 0.465,0.465 0.5,1.219 0.5,1.87 C 0.5,-1.219 0.465,-0.465 0,0 M 0.396,-4.122 C 0,-4.517 -0.534,-4.737 -1.161,-4.737 c -0.627,0 -1.161,0.22 -1.556,0.615 -0.593,0.592 -0.697,1.451 -0.697,2.253 0,0.801 0.104,1.66 0.697,2.252 0.395,0.395 0.929,0.616 1.556,0.616 0.627,0 1.161,-0.221 1.557,-0.616 0.591,-0.592 0.696,-1.451 0.696,-2.252 0,-0.802 -0.105,-1.661 -0.696,-2.253"
             style="fill:#003399;fill-opacity:1;fill-rule:nonzero;stroke:none"
             id="path252" /></g><g
           id="g254"
           transform="translate(309.3906,93.0039)"><path
             d="m 0,0 c -1.37,0 -1.579,-1.185 -1.579,-2.346 0,-1.161 0.209,-2.345 1.579,-2.345 1.37,0 1.579,1.184 1.579,2.345 C 1.579,-1.185 1.37,0 0,0 m 1.451,-4.727 c -0.29,-0.29 -0.789,-0.487 -1.37,-0.487 -0.627,0 -1.173,0.139 -1.66,0.789 v -3.39 h -0.593 v 8.267 h 0.593 v -0.72 c 0.487,0.651 1.033,0.79 1.66,0.79 0.581,0 1.08,-0.198 1.37,-0.488 0.57,-0.568 0.72,-1.498 0.72,-2.38 0,-0.883 -0.15,-1.811 -0.72,-2.381"
             style="fill:#003399;fill-opacity:1;fill-rule:nonzero;stroke:none"
             id="path256" /></g><g
           id="g258"
           transform="translate(321.039,87.8593)"><path
             d="m 0,0 v 3.472 c 0,1.08 -0.545,1.673 -1.544,1.673 -0.964,0 -1.579,-0.617 -1.579,-1.569 V 0 h -0.593 v 3.472 c 0,1.08 -0.545,1.673 -1.544,1.673 -0.999,0 -1.579,-0.617 -1.579,-1.673 V 0 h -0.593 v 5.597 h 0.593 V 4.936 c 0.406,0.475 0.987,0.731 1.66,0.731 0.825,0 1.463,-0.36 1.8,-1.022 0.418,0.662 1.08,1.022 1.904,1.022 C -0.859,5.667 -0.348,5.469 0,5.133 0.372,4.772 0.581,4.238 0.581,3.576 V 0 Z"
             style="fill:#003399;fill-opacity:1;fill-rule:nonzero;stroke:none"
             id="path260" /></g><g
           id="g262"
           transform="translate(327.291,92.0625)"><path
             d="M 0,0 C -0.244,0.581 -0.813,0.941 -1.452,0.941 -2.091,0.941 -2.659,0.581 -2.903,0 -3.043,-0.348 -3.077,-0.522 -3.101,-1.057 H 0.197 C 0.174,-0.522 0.139,-0.348 0,0 m -3.101,-1.532 c 0,-1.417 0.639,-2.206 1.824,-2.206 0.661,0 1.068,0.197 1.544,0.673 l 0.441,-0.348 c -0.569,-0.569 -1.092,-0.859 -2.02,-0.859 -1.544,0 -2.381,0.998 -2.381,2.868 0,1.8 0.837,2.868 2.241,2.868 1.393,0 2.241,-1.023 2.241,-2.73 v -0.266 z"
             style="fill:#003399;fill-opacity:1;fill-rule:nonzero;stroke:none"
             id="path264" /></g><g
           id="g266"
           transform="translate(333.83,87.8593)"><path
             d="m 0,0 v 3.472 c 0,1.08 -0.545,1.673 -1.544,1.673 -0.999,0 -1.579,-0.617 -1.579,-1.673 V 0 h -0.593 v 5.597 h 0.593 V 4.936 c 0.418,0.487 0.976,0.731 1.648,0.731 0.627,0 1.127,-0.187 1.487,-0.534 C 0.384,4.772 0.593,4.238 0.593,3.576 V 0 Z"
             style="fill:#003399;fill-opacity:1;fill-rule:nonzero;stroke:none"
             id="path268" /></g><g
           id="g270"
           transform="translate(338.2089,87.8593)"><path
             d="m 0,0 c -0.882,0 -1.347,0.615 -1.347,1.463 v 3.692 h -0.766 v 0.442 h 0.766 v 1.788 h 0.592 V 5.597 H 0.512 V 5.155 H -0.755 V 1.451 c 0,-0.58 0.268,-0.929 0.859,-0.929 H 0.512 V 0 Z"
             style="fill:#003399;fill-opacity:1;fill-rule:nonzero;stroke:none"
             id="path272" /></g><g
           id="g274"
           transform="translate(344.4706,95.5693)"><path
             d="M 0,0 V -3.402 H 3.739 V -3.959 H 0 V -7.71 H -0.627 V 0.558 H 4.39 V 0 Z"
             style="fill:#003399;fill-opacity:1;fill-rule:nonzero;stroke:none"
             id="path276" /></g><g
           id="g278"
           transform="translate(353.7968,87.8593)"><path
             d="m 0,0 v 0.662 c -0.418,-0.488 -0.976,-0.731 -1.648,-0.731 -0.628,0 -1.127,0.185 -1.487,0.534 -0.372,0.359 -0.581,0.893 -0.581,1.556 v 3.576 h 0.592 V 2.125 c 0,-1.08 0.546,-1.672 1.545,-1.672 C -0.58,0.453 0,1.068 0,2.125 V 5.597 H 0.592 V 0 Z"
             style="fill:#003399;fill-opacity:1;fill-rule:nonzero;stroke:none"
             id="path280" /></g><g
           id="g282"
           transform="translate(360.4755,87.8593)"><path
             d="m 0,0 v 3.472 c 0,1.08 -0.545,1.673 -1.544,1.673 -0.999,0 -1.579,-0.617 -1.579,-1.673 V 0 h -0.593 v 5.597 h 0.593 V 4.936 c 0.418,0.487 0.976,0.731 1.648,0.731 0.627,0 1.127,-0.187 1.487,-0.534 C 0.384,4.772 0.593,4.238 0.593,3.576 V 0 Z"
             style="fill:#003399;fill-opacity:1;fill-rule:nonzero;stroke:none"
             id="path284" /></g><g
           id="g286"
           transform="translate(365.2158,93.0039)"><path
             d="m 0,0 c -1.37,0 -1.579,-1.185 -1.579,-2.346 0,-1.161 0.209,-2.345 1.579,-2.345 1.37,0 1.579,1.184 1.579,2.345 C 1.579,-1.185 1.37,0 0,0 m 1.579,-5.145 v 0.72 c -0.487,-0.65 -1.033,-0.789 -1.66,-0.789 -0.581,0 -1.08,0.197 -1.37,0.487 -0.57,0.57 -0.721,1.498 -0.721,2.381 0,0.882 0.151,1.812 0.721,2.38 0.29,0.29 0.789,0.488 1.37,0.488 0.627,0 1.173,-0.139 1.66,-0.79 v 3.391 h 0.593 v -8.268 z"
             style="fill:#003399;fill-opacity:1;fill-rule:nonzero;stroke:none"
             id="path288" /></g><g
           id="g290"
           transform="translate(139.2919,87.8251)"><path
             d="M 0,0 V 9.213 H 6.661 V 8.125 H 1.219 V 5.304 H 6.315 V 4.223 H 1.219 V 1.087 H 6.875 V 0 Z"
             style="fill:#003399;fill-opacity:1;fill-rule:nonzero;stroke:none"
             id="path292" /></g><g
           id="g294"
           transform="translate(152.4662,87.8251)"><path
             d="m 0,0 v 0.98 c -0.52,-0.753 -1.226,-1.13 -2.118,-1.13 -0.394,0 -0.761,0.075 -1.103,0.225 -0.341,0.152 -0.594,0.341 -0.76,0.57 -0.165,0.227 -0.282,0.507 -0.349,0.838 -0.046,0.222 -0.069,0.574 -0.069,1.056 v 4.135 h 1.131 V 2.973 c 0,-0.591 0.023,-0.99 0.069,-1.195 0.072,-0.298 0.222,-0.531 0.453,-0.7 0.23,-0.17 0.515,-0.255 0.854,-0.255 0.34,0 0.658,0.087 0.955,0.261 0.298,0.174 0.509,0.41 0.632,0.71 0.124,0.3 0.185,0.734 0.185,1.304 V 6.674 H 1.012 V 0 Z"
             style="fill:#003399;fill-opacity:1;fill-rule:nonzero;stroke:none"
             id="path296" /></g><g
           id="g298"
           transform="translate(155.6235,87.8251)"><path
             d="M 0,0 V 6.674 H 1.018 V 5.662 c 0.26,0.474 0.5,0.785 0.719,0.937 0.221,0.15 0.462,0.225 0.726,0.225 0.381,0 0.769,-0.121 1.163,-0.364 L 3.236,5.411 C 2.959,5.574 2.683,5.656 2.407,5.656 2.16,5.656 1.937,5.581 1.741,5.433 1.543,5.284 1.403,5.077 1.319,4.813 1.194,4.411 1.131,3.972 1.131,3.494 V 0 Z"
             style="fill:#003399;fill-opacity:1;fill-rule:nonzero;stroke:none"
             id="path300" /></g><g
           id="g302"
           transform="translate(161.0493,91.1621)"><path
             d="m 0,0 c 0,-0.854 0.187,-1.495 0.56,-1.92 0.372,-0.425 0.841,-0.638 1.407,-0.638 0.561,0 1.029,0.214 1.401,0.641 0.373,0.428 0.56,1.079 0.56,1.955 0,0.825 -0.188,1.45 -0.563,1.875 C 2.99,2.339 2.524,2.552 1.967,2.552 1.401,2.552 0.932,2.34 0.56,1.917 0.187,1.493 0,0.854 0,0 m -1.163,0 c 0,1.235 0.344,2.151 1.031,2.746 0.574,0.494 1.274,0.741 2.099,0.741 0.917,0 1.667,-0.299 2.25,-0.901 C 4.799,1.984 5.09,1.154 5.09,0.095 5.09,-0.765 4.961,-1.44 4.704,-1.933 4.446,-2.425 4.071,-2.807 3.579,-3.079 3.086,-3.352 2.549,-3.487 1.967,-3.487 c -0.934,0 -1.69,0.299 -2.265,0.898 C -0.875,-1.99 -1.163,-1.127 -1.163,0"
             style="fill:#003399;fill-opacity:1;fill-rule:nonzero;stroke:none"
             id="path304" /></g><g
           id="g306"
           transform="translate(168.8759,91.124)"><path
             d="m 0,0 c 0,-0.858 0.174,-1.493 0.521,-1.903 0.349,-0.411 0.77,-0.617 1.264,-0.617 0.503,0 0.933,0.213 1.291,0.638 0.359,0.425 0.538,1.084 0.538,1.977 0,0.85 -0.176,1.487 -0.525,1.91 C 2.739,2.428 2.321,2.64 1.835,2.64 1.354,2.64 0.927,2.414 0.556,1.964 0.186,1.514 0,0.859 0,0 m -1.024,-5.856 v 9.231 h 1.03 V 2.508 C 0.25,2.847 0.524,3.102 0.83,3.271 1.135,3.441 1.506,3.525 1.942,3.525 2.512,3.525 3.014,3.379 3.45,3.086 3.886,2.793 4.215,2.379 4.437,1.845 4.659,1.311 4.77,0.726 4.77,0.088 4.77,-0.595 4.647,-1.209 4.402,-1.756 4.157,-2.303 3.801,-2.722 3.334,-3.013 2.867,-3.304 2.375,-3.449 1.86,-3.449 c -0.377,0 -0.715,0.079 -1.015,0.238 -0.299,0.159 -0.545,0.36 -0.738,0.604 v -3.249 z"
             style="fill:#003399;fill-opacity:1;fill-rule:nonzero;stroke:none"
             id="path308" /></g><g
           id="g310"
           transform="translate(176.2504,91.8027)"><path
             d="M 0,0 H 3.727 C 3.676,0.562 3.534,0.982 3.299,1.264 2.939,1.699 2.472,1.917 1.898,1.917 1.378,1.917 0.941,1.743 0.587,1.396 0.233,1.048 0.038,0.583 0,0 M 3.714,-1.828 4.883,-1.973 C 4.698,-2.656 4.357,-3.186 3.858,-3.563 3.36,-3.939 2.723,-4.128 1.948,-4.128 c -0.976,0 -1.75,0.3 -2.322,0.901 -0.572,0.602 -0.858,1.445 -0.858,2.53 0,1.123 0.289,1.994 0.867,2.614 0.578,0.62 1.328,0.93 2.25,0.93 0.892,0 1.621,-0.304 2.187,-0.911 C 4.638,1.328 4.92,0.474 4.92,-0.628 4.92,-0.695 4.918,-0.796 4.914,-0.93 h -4.977 c 0.042,-0.733 0.249,-1.295 0.622,-1.684 0.373,-0.39 0.838,-0.584 1.395,-0.584 0.415,0 0.769,0.108 1.062,0.327 0.294,0.218 0.526,0.565 0.698,1.043"
             style="fill:#003399;fill-opacity:1;fill-rule:nonzero;stroke:none"
             id="path312" /></g><g
           id="g314"
           transform="translate(187.1996,91.1748)"><path
             d="M 0,0 C -0.411,-0.168 -1.026,-0.311 -1.847,-0.428 -2.313,-0.494 -2.642,-0.57 -2.834,-0.653 -3.027,-0.737 -3.175,-0.86 -3.28,-1.021 c -0.105,-0.162 -0.158,-0.34 -0.158,-0.538 0,-0.301 0.115,-0.552 0.343,-0.754 0.228,-0.201 0.563,-0.301 1.003,-0.301 0.435,0 0.823,0.094 1.162,0.286 0.34,0.19 0.589,0.451 0.748,0.782 C -0.061,-1.291 0,-0.913 0,-0.415 Z M 0.094,-2.526 C -0.325,-2.883 -0.728,-3.134 -1.115,-3.28 -1.503,-3.427 -1.918,-3.5 -2.363,-3.5 c -0.733,0 -1.296,0.179 -1.69,0.537 -0.394,0.359 -0.591,0.816 -0.591,1.373 0,0.326 0.075,0.625 0.223,0.896 0.149,0.269 0.344,0.487 0.585,0.65 0.24,0.163 0.512,0.287 0.814,0.37 0.222,0.06 0.557,0.115 1.005,0.17 0.913,0.109 1.586,0.239 2.017,0.39 0.004,0.155 0.006,0.254 0.006,0.296 0,0.461 -0.107,0.785 -0.32,0.973 -0.289,0.256 -0.719,0.384 -1.289,0.384 -0.531,0 -0.924,-0.094 -1.178,-0.28 C -3.034,2.072 -3.222,1.742 -3.343,1.27 l -1.106,0.15 c 0.1,0.474 0.266,0.855 0.496,1.147 0.231,0.291 0.564,0.515 0.999,0.672 0.436,0.157 0.941,0.236 1.515,0.236 0.57,0 1.033,-0.067 1.389,-0.202 C 0.306,3.14 0.568,2.972 0.735,2.768 0.903,2.564 1.02,2.309 1.087,1.998 1.125,1.806 1.144,1.458 1.144,0.955 v -1.508 c 0,-1.051 0.024,-1.717 0.072,-1.996 0.048,-0.278 0.143,-0.545 0.286,-0.801 H 0.321 c -0.118,0.235 -0.193,0.509 -0.227,0.824"
             style="fill:#003399;fill-opacity:1;fill-rule:nonzero;stroke:none"
             id="path316" /></g><g
           id="g318"
           transform="translate(190.4828,87.8251)"><path
             d="M 0,0 V 6.674 H 1.018 V 5.725 c 0.49,0.733 1.198,1.099 2.124,1.099 0.402,0 0.772,-0.072 1.109,-0.217 C 4.589,6.463 4.841,6.273 5.009,6.039 5.176,5.805 5.293,5.525 5.361,5.203 5.402,4.994 5.423,4.627 5.423,4.104 V 0 H 4.292 V 4.06 C 4.292,4.521 4.249,4.865 4.16,5.094 4.072,5.321 3.916,5.504 3.692,5.64 3.468,5.776 3.205,5.845 2.903,5.845 2.422,5.845 2.006,5.691 1.656,5.386 1.306,5.08 1.131,4.499 1.131,3.645 V 0 Z"
             style="fill:#003399;fill-opacity:1;fill-rule:nonzero;stroke:none"
             id="path320" /></g><g
           id="g322"
           transform="translate(208.1786,97.038)"><path
             d="m 0,0 h 1.219 v -5.323 c 0,-0.926 -0.104,-1.661 -0.314,-2.205 -0.209,-0.545 -0.588,-0.989 -1.134,-1.329 -0.547,-0.342 -1.264,-0.513 -2.152,-0.513 -0.864,0 -1.57,0.148 -2.119,0.446 -0.548,0.298 -0.94,0.728 -1.174,1.291 -0.235,0.564 -0.352,1.334 -0.352,2.31 V 0 h 1.219 v -5.316 c 0,-0.801 0.074,-1.391 0.223,-1.77 0.148,-0.379 0.404,-0.671 0.767,-0.876 0.362,-0.206 0.805,-0.309 1.329,-0.309 0.896,0 1.535,0.204 1.916,0.61 C -0.19,-7.254 0,-6.473 0,-5.316 Z"
             style="fill:#003399;fill-opacity:1;fill-rule:nonzero;stroke:none"
             id="path324" /></g><g
           id="g326"
           transform="translate(211.6689,87.8251)"><path
             d="M 0,0 V 6.674 H 1.018 V 5.725 c 0.49,0.733 1.198,1.099 2.124,1.099 0.402,0 0.772,-0.072 1.109,-0.217 C 4.589,6.463 4.841,6.273 5.009,6.039 5.176,5.805 5.293,5.525 5.361,5.203 5.402,4.994 5.423,4.627 5.423,4.104 V 0 H 4.292 V 4.06 C 4.292,4.521 4.249,4.865 4.16,5.094 4.072,5.321 3.916,5.504 3.692,5.64 3.468,5.776 3.205,5.845 2.903,5.845 2.422,5.845 2.006,5.691 1.656,5.386 1.306,5.08 1.131,4.499 1.131,3.645 V 0 Z"
             style="fill:#003399;fill-opacity:1;fill-rule:nonzero;stroke:none"
             id="path328" /></g><path
           d="m 219.219,94.499 h 1.131 v -6.674 h -1.131 z m 0,2.539 h 1.131 v -1.301 h -1.131 z"
           style="fill:#003399;fill-opacity:1;fill-rule:nonzero;stroke:none"
           id="path330" /><g
           id="g332"
           transform="translate(223.2001,91.1621)"><path
             d="m 0,0 c 0,-0.854 0.187,-1.495 0.56,-1.92 0.372,-0.425 0.841,-0.638 1.407,-0.638 0.561,0 1.029,0.214 1.401,0.641 0.373,0.428 0.56,1.079 0.56,1.955 0,0.825 -0.188,1.45 -0.563,1.875 C 2.99,2.339 2.524,2.552 1.967,2.552 1.401,2.552 0.932,2.34 0.56,1.917 0.187,1.493 0,0.854 0,0 m -1.163,0 c 0,1.235 0.344,2.151 1.031,2.746 0.574,0.494 1.274,0.741 2.099,0.741 0.917,0 1.667,-0.299 2.25,-0.901 C 4.799,1.984 5.09,1.154 5.09,0.095 5.09,-0.765 4.961,-1.44 4.704,-1.933 4.446,-2.425 4.071,-2.807 3.579,-3.079 3.086,-3.352 2.549,-3.487 1.967,-3.487 c -0.934,0 -1.69,0.299 -2.265,0.898 C -0.875,-1.99 -1.163,-1.127 -1.163,0"
             style="fill:#003399;fill-opacity:1;fill-rule:nonzero;stroke:none"
             id="path334" /></g><g
           id="g336"
           transform="translate(230.0024,87.8251)"><path
             d="M 0,0 V 6.674 H 1.018 V 5.725 c 0.49,0.733 1.198,1.099 2.124,1.099 0.402,0 0.772,-0.072 1.109,-0.217 C 4.589,6.463 4.841,6.273 5.009,6.039 5.176,5.805 5.293,5.525 5.361,5.203 5.402,4.994 5.423,4.627 5.423,4.104 V 0 H 4.292 V 4.06 C 4.292,4.521 4.249,4.865 4.16,5.094 4.072,5.321 3.916,5.504 3.692,5.64 3.468,5.776 3.205,5.845 2.903,5.845 2.422,5.845 2.006,5.691 1.656,5.386 1.306,5.08 1.131,4.499 1.131,3.645 V 0 Z"
             style="fill:#003399;fill-opacity:1;fill-rule:nonzero;stroke:none"
             id="path338" /></g></g></g></g></svg>
